<svg width="406" height="405" viewBox="0 0 406 405" fill="none" xmlns="http://www.w3.org/2000/svg">
  <g opacity="0.1">
    <path d="M280.358 195.59L280.431 195.624L280.465 195.64L280.52 195.668L280.64 195.727L280.715 195.764L280.724 195.768L282.946 196.855L285.453 198.307L287.873 199.942L290.202 201.754L292.435 203.743L294.57 205.903L296.6 208.229L298.521 210.721L300.33 213.372L302.022 216.181L303.593 219.14L305.04 222.243L306.362 225.484L307.557 228.858L308.619 232.357L309.548 235.976L310.34 239.706L310.992 243.543L311.506 247.48L311.879 251.506L312.11 255.615L312.2 259.798L312.149 264.047L311.954 268.353L311.617 272.71L311.137 277.106L310.515 281.535L309.752 285.989L308.852 290.456L307.816 294.928L306.647 299.396L305.343 303.852L303.911 308.287L302.349 312.691L300.664 317.056L298.856 321.371L296.934 325.633L294.897 329.828L292.754 333.951L290.505 337.992L288.155 341.942L285.709 345.794L283.174 349.541L280.551 353.175L277.848 356.689L275.074 360.078L272.228 363.332L269.32 366.448L266.354 369.419L263.338 372.235L260.274 374.895L257.172 377.392L254.037 379.723L250.876 381.886L247.693 383.873L244.498 385.681L241.293 387.307L238.088 388.748L234.886 390.001L231.697 391.064L228.523 391.938L225.373 392.62L222.252 393.109L219.166 393.406L216.123 393.508L213.126 393.415L210.182 393.128L207.296 392.649L204.473 391.981L201.72 391.124L196.021 388.905L192.977 387.664L189.91 386.357L186.822 384.983L183.714 383.543L181.427 382.45L178.366 380.978L175.285 379.443L172.192 377.846L169.085 376.188L165.966 374.469L162.836 372.691L159.697 370.855L157.976 369.833L154.9 367.982L151.819 366.073L148.733 364.11L145.646 362.092L142.558 360.023L139.473 357.903L136.39 355.731L133.31 353.511L130.238 351.242L127.172 348.925L124.117 346.562L123.282 345.904L120.307 343.554L117.344 341.16L114.395 338.724L111.463 336.249L108.547 333.735L105.648 331.183L102.77 328.595L99.9133 325.974L97.0806 323.318L94.2718 320.631L91.4898 317.912L88.7329 315.165L86.0063 312.39L83.3101 309.588L80.6456 306.762L78.0138 303.913L75.415 301.041L72.854 298.149L70.3285 295.239L67.8433 292.311L65.3975 289.367L62.9908 286.409L60.6283 283.44L59.9823 282.62L57.6072 279.567L55.2775 276.507L52.996 273.437L50.7625 270.361L48.5769 267.281L46.4432 264.197L44.3601 261.11L42.3288 258.024L40.3518 254.94L38.4292 251.859L36.561 248.783L35.5485 247.078L33.6966 243.939L31.9029 240.808L30.17 237.687L28.4951 234.579L26.8823 231.482L25.33 228.4L23.8422 225.335L22.7539 223.063L21.2977 219.951L19.9072 216.86L18.5838 213.789L17.3236 210.742L16.1329 207.718L15.0926 205.052L13.9461 201.994L12.8691 198.966L11.8617 195.966L10.9238 192.998L9.99215 190.032L9.10863 187.04L8.29839 184.086L7.56011 181.166L6.77395 177.98L6.09765 175.049L5.49471 172.156L4.96508 169.305L4.34316 165.928L3.8818 163.072L3.49627 160.262L3.05758 156.76L2.74413 153.953L2.50652 151.195L2.25881 147.588L2.09701 144.84L2.01226 142.143L1.96179 138.45L1.95544 135.772L2.02871 133.147L2.18041 129.383L2.33331 126.785L2.92114 120.429L3.23715 117.921L3.78955 114.097L4.19149 111.625L4.94363 107.806L5.43032 105.375L5.9953 103.008L6.95217 99.1865L7.6044 96.8656L8.75851 93.0748L9.49536 90.8059L10.8441 87.0581L11.6683 84.8435L13.2092 81.1512L14.1179 78.996L16.842 73.2762L17.9164 71.2563L19.8327 67.6993L20.9905 65.7477L23.0826 62.2779L24.3238 60.3944L26.5864 57.0245L27.9074 55.2157L30.3331 51.9532L31.7349 50.2201L34.3186 47.0752L35.7975 45.4194L38.5328 42.4059L40.0865 40.8297L42.9646 37.9515L44.5926 36.4574L47.6062 33.7245L49.3025 32.3138L52.4424 29.7327L54.2083 28.4067L57.4619 25.9823L59.2935 24.7423L62.6545 22.4834L64.5456 21.3281L68.004 19.2399L69.9531 18.173L73.4987 16.2605L75.5022 15.2809L79.125 13.5492L81.1802 12.6568L84.87 11.1134L86.972 10.3082L90.7162 8.95314L92.8651 8.23521L96.6521 7.07224L98.8401 6.43895L102.66 5.47067L104.885 4.92213L107.168 4.44939L110.982 3.68336L113.296 3.29401L117.118 2.72267L119.459 2.4143L125.64 1.81257L128.055 1.65842L131.824 1.48645L134.255 1.40942L136.735 1.40429L140.44 1.43083L142.93 1.4991L145.465 1.63813L149.088 1.85812L151.628 2.06666L154.213 2.34599L157.737 2.753L160.318 3.0969L162.941 3.51019L166.35 4.09797L168.964 4.57075L171.616 5.11173L174.303 5.71844L177.534 6.4668L180.206 7.12914L182.911 7.85467L185.647 8.646L188.675 9.54091L191.39 10.3803L194.133 11.2802L196.902 12.2434L199.71 13.2698L202.45 14.2747L205.214 15.3378L208.001 16.459L210.809 17.6384L213.638 18.8771L216.088 19.9705L218.877 21.2396L221.684 22.5631L224.507 23.9421L227.345 25.3743L230.196 26.8607L233.062 28.3991L235.064 29.4887L237.877 31.0448L240.701 32.65L243.532 34.306L246.371 36.0099L249.216 37.7606L252.067 39.5593L254.921 41.4048L257.778 43.2958L260.636 45.2285L261.968 46.1336L264.762 48.0675L267.553 50.042L270.342 52.0581L273.128 54.1134L275.909 56.2092L278.685 58.3403L281.453 60.5119L284.213 62.7178L286.962 64.9589L289.701 67.2329L292.428 69.5423L295.143 71.8833L297.84 74.2546L300.525 76.6563L303.193 79.087L305.842 81.5456L308.472 84.0319L311.082 86.5436L313.672 89.0805L316.239 91.6402L318.783 94.2239L321.301 96.8278L323.796 99.4519L326.262 102.095L328.7 104.758L331.111 107.437L333.491 110.131L335.84 112.841L338.158 115.563L340.442 118.298L342.693 121.044L344.908 123.8L347.088 126.564L349.231 129.336L351.335 132.116L353.401 134.899L355.427 137.687L357.414 140.478L359.358 143.269L361.261 146.061L362.2 147.442L364.102 150.298L365.958 153.152L367.769 156.002L369.533 158.848L371.249 161.687L372.916 164.52L374.537 167.343L376.106 170.158L377.188 172.145L378.74 175.012L380.24 177.865L381.685 180.706L383.078 183.529L384.415 186.341L385.697 189.132L386.787 191.569L388.039 194.401L389.235 197.213L390.373 200.004L391.45 202.772L392.467 205.516L393.492 208.311L394.471 211.087L395.387 213.834L396.24 216.552L397.134 219.57L397.94 222.313L398.685 225.024L399.361 227.703L400.734 233.616L401.29 236.275L401.781 238.897L402.367 242.294L402.797 244.926L403.158 247.518L403.567 251.03L403.863 253.624L404.089 256.174L404.244 258.68L404.468 262.332L404.553 264.834L404.583 268.53L404.596 271.02L404.535 273.462L404.367 277.222L404.23 279.649L404.019 282.022L403.65 285.834L403.361 288.187L402.793 292.003L402.423 294.33L401.975 296.598L401.207 300.435L400.676 302.673L399.713 306.487L399.097 308.688L397.939 312.473L397.239 314.634L395.888 318.374L395.101 320.493L393.562 324.176L392.688 326.248L391.735 328.253L390.001 331.888L388.961 333.841L387.046 337.397L385.918 339.293L383.825 342.762L382.61 344.598L380.349 347.969L379.048 349.743L376.623 353.005L375.235 354.714L372.651 357.859L371.18 359.5L368.447 362.519L366.891 364.087L364.014 366.969L362.378 368.466L359.365 371.204L357.649 372.623L354.507 375.209L352.716 376.551L349.456 378.979L347.588 380.24L344.223 382.503L342.282 383.682L338.819 385.776L336.809 386.873L333.258 388.788L331.182 389.8L327.555 391.533L325.416 392.461L321.722 394.007L319.525 394.851L315.774 396.203L313.523 396.96L309.728 398.118L307.424 398.789L303.599 399.749L301.247 400.335L298.831 400.839L295.007 401.596L292.55 402.016L288.721 402.573L286.226 402.91L283.671 403.166L279.878 403.519L277.293 403.692L273.521 403.846L270.911 403.938L268.245 403.952L264.543 403.906L261.858 403.84L259.121 403.697L255.506 403.452L252.758 403.234L249.962 402.939L246.451 402.501L243.652 402.135L240.805 401.692L237.916 401.174L234.575 400.561L231.693 399.977L228.768 399.317L225.571 398.532L222.66 397.813L219.712 397.019L216.729 396.155L213.712 395.218L210.787 394.3L207.794 393.312L204.77 392.252L201.72 391.124" fill="#0E0C15"/>
    <path d="M231.694 399.977L234.987 400.58L238.319 400.987L241.688 401.196L245.083 401.206L248.501 401.016L251.934 400.627L255.374 400.041L258.817 399.258L262.254 398.281L265.681 397.109L269.088 395.744L272.47 394.185L275.821 392.439L279.132 390.508L282.401 388.397L285.617 386.109L288.776 383.648L291.871 381.02L294.896 378.228L297.844 375.275L300.71 372.169L303.488 368.916L306.173 365.523L308.759 361.999L311.242 358.346L313.615 354.574L315.874 350.69L318.014 346.699L320.032 342.611L321.921 338.434L323.681 334.176L325.307 329.848L326.796 325.454L328.144 321.009L329.349 316.515L330.407 311.984L331.316 307.424L332.077 302.846L332.686 298.257L333.144 293.669L333.451 289.089L333.602 284.526L333.601 279.989L333.444 275.49L333.132 271.034L332.668 266.631L332.057 262.29L331.292 258.019L330.38 253.826L329.322 249.722L328.122 245.713L326.774 241.807L325.29 238.012L323.67 234.334L321.918 230.779L320.038 227.357L318.033 224.071L315.908 220.93L313.667 217.94L311.314 215.106L308.851 212.434L306.287 209.928L303.627 207.592L300.875 205.426L298.039 203.442L295.12 201.638L292.128 200.019L289.067 198.59L285.942 197.352L282.76 196.306" fill="#0E0C15"/>
    <path d="M282.937 196.474L281.91 196.13L281.444 195.965L281.137 195.855L281.101 195.842L281.075 195.833L280.872 195.762L280.354 195.568L279.914 195.403" fill="#0E0C15"/>
    <path d="M282.76 196.306L281.824 196.049L281.157 195.852L281.099 195.834" fill="#0E0C15"/>
    <path d="M281.484 196.05L280.917 195.817L280.848 195.788L280.676 195.717L280.55 195.667L280.356 195.587L280.261 195.546L279.219 195.099L278.401 194.734L278.071 194.586L276.917 194.049L276.707 193.948" fill="#0E0C15"/>
    <path d="M268.244 403.951L271.95 403.799L275.654 403.448L279.348 402.899L283.023 402.151L286.674 401.208L290.294 400.068L293.874 398.736L297.409 397.207L300.891 395.491L304.312 393.589L307.67 391.505L310.954 389.243L314.158 386.807L317.278 384.2L320.305 381.429L323.234 378.495L326.059 375.407L328.774 372.171L331.374 368.792L333.855 365.277L336.213 361.635L338.44 357.868L340.532 353.989L342.484 349.999L344.294 345.911L345.957 341.73L347.472 337.468L348.834 333.13L350.043 328.726L351.092 324.264L351.982 319.753L352.707 315.203L353.269 310.62L353.667 306.015L353.901 301.397L353.969 296.776L353.873 292.16L353.61 287.558L353.183 282.98L352.59 278.436L351.834 273.933L350.915 269.48L349.838 265.086L348.606 260.76L347.219 256.511L345.679 252.345L343.992 248.273L342.158 244.303L340.181 240.443L338.067 236.696L335.821 233.072L333.447 229.581L330.949 226.224L328.334 223.009L325.604 219.945L322.765 217.038L319.823 214.291L316.786 211.709L313.657 209.298L310.445 207.059L307.155 205L303.795 203.125L300.37 201.433L296.886 199.934L293.351 198.626L289.77 197.512L286.152 196.592L282.504 195.869L280.349 195.559" fill="#0E0C15"/>
    <path d="M282.11 196.049L281.261 195.872L281.07 195.828" fill="#0E0C15"/>
    <path d="M307.426 398.79L311.203 397.637L314.923 396.293L318.58 394.76L322.165 393.041L325.675 391.139L329.101 389.058L332.436 386.804L335.674 384.379L338.808 381.787L341.833 379.033L344.741 376.121L347.527 373.056L350.186 369.846L352.712 366.496L355.101 363.015L357.349 359.406L359.45 355.68L361.399 351.84L363.193 347.895L364.826 343.85L366.299 339.715L367.606 335.501L368.747 331.212L369.718 326.859L370.516 322.448L371.14 317.991L371.589 313.493L371.859 308.965L371.954 304.415L371.871 299.852L371.613 295.287L371.181 290.726L370.571 286.178L369.788 281.655L368.829 277.165L367.699 272.716L366.4 268.314L364.936 263.974L363.309 259.698L361.523 255.497L359.582 251.382L357.486 247.357L355.241 243.431L352.853 239.615L350.324 235.912L347.662 232.33L344.872 228.875L341.96 225.558L338.931 222.381L335.789 219.352L332.541 216.479L329.194 213.764L325.756 211.213L322.233 208.83L318.631 206.621L314.96 204.588L311.223 202.735L307.43 201.07L303.587 199.591L299.703 198.306L295.784 197.211L291.839 196.31L287.874 195.603L283.899 195.094L279.92 194.78L278.405 194.737" fill="#0E0C15"/>
    <path d="M352.72 376.557L355.86 373.971L358.876 371.231L361.761 368.34L364.513 365.305L367.122 362.132L369.587 358.828L371.9 355.397L374.059 351.85L376.058 348.189L377.893 344.422L379.559 340.556L381.053 336.597L382.372 332.556L383.515 328.439L384.481 324.255L385.265 320.011L385.867 315.715L386.284 311.377L386.515 307.002L386.557 302.602L386.415 298.183L386.087 293.757L385.573 289.327L384.877 284.907L383.998 280.504L382.935 276.127L381.693 271.785L380.271 267.483L378.675 263.234L376.91 259.044L374.977 254.919L372.88 250.87L370.622 246.906L368.209 243.034L365.643 239.26L362.932 235.593L360.079 232.04L357.092 228.608L353.976 225.3L350.738 222.127L347.383 219.094L343.918 216.205L340.351 213.47L336.685 210.891L332.931 208.474L329.096 206.222L325.186 204.14L321.211 202.23L317.177 200.5L313.095 198.95L308.968 197.586L304.805 196.409L300.617 195.419L296.411 194.621L292.195 194.013L287.976 193.595L283.764 193.37L279.567 193.34L275.806 193.489" fill="#0E0C15"/>
    <path d="M385.915 339.289L387.837 335.721L389.588 332.056L391.161 328.302L392.553 324.47L393.764 320.561L394.791 316.587L395.631 312.556L396.285 308.475L396.746 304.35L397.017 300.189L397.093 296.002L396.978 291.797L396.668 287.579L396.169 283.358L395.478 279.144L394.599 274.945L393.531 270.765L392.275 266.617L390.834 262.507L389.211 258.444L387.41 254.433L385.433 250.487L383.286 246.607L380.974 242.807L378.496 239.09L375.862 235.467L373.073 231.943L370.136 228.525L367.056 225.221L363.842 222.037L360.499 218.977L357.031 216.048L353.45 213.256L349.759 210.609L345.964 208.11L342.074 205.765L338.097 203.578L334.041 201.552L329.915 199.691L325.726 197.998L321.482 196.478L317.19 195.135L312.862 193.969L308.502 192.987L304.123 192.184L299.73 191.566L295.332 191.13L290.941 190.88L286.563 190.814L282.204 190.935L277.877 191.243L273.59 191.736L272.81 191.861" fill="#0E0C15"/>
    <path d="M401.979 296.605L402.556 292.732L402.939 288.825L403.126 284.896L403.117 280.951L402.912 276.997L402.511 273.042L401.915 269.093L401.127 265.159L400.146 261.248L398.976 257.364L397.615 253.518L396.066 249.717L394.333 245.969L392.418 242.279L390.327 238.657L388.063 235.106L385.633 231.636L383.038 228.255L380.281 224.967L377.368 221.782L374.309 218.703L371.105 215.736L367.765 212.889L364.297 210.167L360.705 207.573L356.997 205.114L353.18 202.796L349.259 200.624L345.243 198.601L341.141 196.731L336.962 195.017L332.712 193.462L328.403 192.071L324.04 190.844L319.632 189.786L315.187 188.9L310.714 188.187L306.225 187.649L301.725 187.282L297.223 187.092L292.731 187.074L288.255 187.232L283.803 187.566L279.388 188.075L275.017 188.758L270.694 189.612L269.475 189.905" fill="#0E0C15"/>
    <path d="M404.244 258.68L403.825 255.037L403.21 251.414L402.404 247.814L401.405 244.249L400.216 240.721L398.837 237.242L397.269 233.814L395.517 230.446L393.585 227.146L391.475 223.916L389.193 220.765L386.742 217.7L384.127 214.725L381.352 211.85L378.42 209.076L375.339 206.413L372.115 203.861L368.754 201.43L365.264 199.121L361.65 196.94L357.918 194.893L354.077 192.983L350.132 191.214L346.093 189.59L341.966 188.115L337.763 186.789L333.488 185.616L329.151 184.598L324.763 183.739L320.328 183.038L315.858 182.501L311.36 182.127L306.842 181.915L302.317 181.867L297.789 181.98L293.272 182.256L288.77 182.695L284.296 183.296L279.858 184.058L275.461 184.981L271.118 186.061L266.836 187.294L265.914 187.597" fill="#0E0C15"/>
    <path d="M399.357 227.698L398.42 224.524L397.295 221.401L395.984 218.336L394.486 215.334L392.804 212.4L390.945 209.542L388.911 206.763L386.705 204.069L384.332 201.466L381.795 198.96L379.099 196.554L376.248 194.256L373.247 192.069L370.103 189.998L366.823 188.045L363.411 186.216L359.877 184.512L356.225 182.941L352.461 181.502L348.593 180.203L344.63 179.044L340.578 178.025L336.447 177.15L332.243 176.422L327.975 175.84L323.652 175.408L319.284 175.125L314.876 174.995L310.438 175.016L305.979 175.188L301.508 175.511L297.033 175.981L292.566 176.6L288.113 177.367L283.682 178.281L279.286 179.343L274.929 180.545L270.622 181.889L266.374 183.369L262.191 184.983L262.153 184.998" fill="#0E0C15"/>
    <path d="M390.378 200.006L389.212 197.392L387.867 194.854L386.342 192.395L384.644 190.02L382.772 187.733L380.733 185.54L378.531 183.445L376.166 181.451L373.643 179.563L370.967 177.787L368.143 176.126L365.177 174.582L362.075 173.156L358.84 171.856L355.481 170.679L352.007 169.631L348.418 168.717L344.723 167.935L340.931 167.288L337.049 166.778L333.084 166.405L329.043 166.169L324.936 166.072L320.77 166.115L316.553 166.297L312.294 166.619L307.999 167.079L303.68 167.679L299.343 168.414L294.997 169.283L290.653 170.286L286.317 171.421L281.999 172.685L277.708 174.079L273.452 175.595L269.237 177.233L265.076 178.99L260.973 180.858L258.305 182.169" fill="#0E0C15"/>
    <path d="M378.741 175.011L377.625 172.959L376.337 171.001L374.877 169.137L373.252 167.371L371.465 165.707L369.516 164.147L367.41 162.696L365.15 161.359L362.737 160.137L360.178 159.032L357.479 158.048L354.643 157.185L351.679 156.446L348.588 155.83L345.38 155.342L342.057 154.984L338.628 154.756L335.096 154.657L331.471 154.69L327.76 154.852L323.97 155.142L320.11 155.565L316.184 156.116L312.201 156.794L308.171 157.601L304.099 158.535L299.994 159.592L295.865 160.77L291.721 162.068L287.568 163.482L283.417 165.012L279.274 166.653L275.148 168.402L271.049 170.256L266.982 172.212L262.956 174.263L258.981 176.409L255.065 178.641L254.356 179.067" fill="#0E0C15"/>
    <path d="M364.107 150.305L363.124 148.858L361.981 147.519L360.675 146.286L359.214 145.166L357.597 144.159L355.826 143.268L353.906 142.495L351.838 141.843L349.626 141.312L347.275 140.905L344.79 140.622L342.175 140.461L339.436 140.427L336.575 140.517L333.6 140.735L330.515 141.078L327.326 141.547L324.041 142.14L320.663 142.856L317.202 143.695L313.664 144.654L310.056 145.73L306.384 146.924L302.655 148.237L298.878 149.66L295.058 151.192L291.205 152.833L287.326 154.576L283.429 156.417L279.521 158.355L275.612 160.387L271.706 162.508L267.814 164.713L263.943 166.999L260.102 169.359L256.297 171.791L252.535 174.286L250.402 175.757" fill="#0E0C15"/>
    <path d="M347.088 126.561L346.32 125.744L345.402 125.047L344.331 124.469L343.113 124.014L341.748 123.683L340.237 123.477L338.581 123.396L336.786 123.441L334.855 123.613L332.792 123.912L330.597 124.334L328.28 124.881L325.841 125.554L323.286 126.349L320.617 127.266L317.842 128.307L314.964 129.466L311.991 130.74L308.928 132.127L305.782 133.627L302.556 135.235L299.259 136.949L295.898 138.768L292.477 140.685L289.003 142.698L285.485 144.802L281.929 146.993L278.343 149.267L274.732 151.619L271.105 154.045L267.47 156.54L263.834 159.1L260.203 161.719L256.583 164.391L252.986 167.111L249.415 169.873L246.435 172.233" fill="#0E0C15"/>
    <path d="M328.704 104.763L328.366 104.456L327.886 104.279L327.266 104.232L326.502 104.316L325.598 104.529L324.554 104.876L323.371 105.353L322.053 105.961L320.599 106.7L319.015 107.565L317.304 108.556L315.467 109.673L313.509 110.913L311.432 112.274L309.24 113.755L306.936 115.354L304.528 117.065L302.016 118.886L299.41 120.813L296.711 122.841L293.925 124.97L291.06 127.193L288.117 129.509L285.104 131.911L282.027 134.393L278.893 136.953L275.709 139.583L272.48 142.28L269.211 145.038L265.91 147.85L262.585 150.713L259.24 153.621L255.885 156.566L252.523 159.544L249.163 162.547L245.812 165.57L242.519 168.569" fill="#0E0C15"/>
    <path d="M308.471 84.0285L308.606 84.2068L308.608 84.5227L308.478 84.9791L308.213 85.5731L307.816 86.3063L307.284 87.1772L306.619 88.1859L305.822 89.3286L304.893 90.604L303.838 92.0109L302.655 93.5429L301.348 95.2013L299.917 96.9811L298.366 98.8809L296.697 100.898L294.913 103.027L293.017 105.264L291.013 107.604L288.906 110.045L286.7 112.577L284.397 115.201L282.003 117.909L279.523 120.697L276.959 123.559L274.32 126.489L271.61 129.482L268.833 132.53L265.996 135.629L263.104 138.771L260.163 141.953L257.178 145.165L254.156 148.402L251.102 151.658L248.024 154.926L244.927 158.2L241.819 161.47L238.705 164.734L238.677 164.761" fill="#0E0C15"/>
    <path d="M286.958 64.9527L287.597 65.5759L288.112 66.3469L288.503 67.2659L288.771 68.3327L288.91 69.5436L288.923 70.8987L288.809 72.3953L288.566 74.031L288.197 75.8032L287.702 77.7069L287.08 79.7394L286.334 81.8958L285.464 84.1762L284.472 86.5716L283.357 89.0819L282.123 91.701L280.772 94.4224L279.308 97.2413L277.733 100.154L276.05 103.152L274.261 106.23L272.37 109.385L270.381 112.608L268.295 115.895L266.118 119.237L263.857 122.628L261.513 126.061L259.095 129.531L256.601 133.029L254.043 136.548L251.42 140.081L248.74 143.623L246.01 147.164L243.234 150.699L240.416 154.219L237.565 157.718L234.952 160.867" fill="#0E0C15"/>
    <path d="M264.761 48.0645L265.919 49.0833L266.964 50.2601L267.897 51.5924L268.712 53.0777L269.41 54.7133L269.988 56.4994L270.442 58.4295L270.773 60.5051L270.979 62.7184L271.062 65.0645L271.021 67.5407L270.855 70.1409L270.564 72.8636L270.147 75.7001L269.605 78.6491L268.94 81.703L268.152 84.8543L267.244 88.0991L266.216 91.4298L265.073 94.8402L263.813 98.3226L262.439 101.873L260.954 105.482L259.362 109.144L257.665 112.851L255.865 116.596L253.969 120.37L251.98 124.166L249.901 127.977L247.734 131.797L245.486 135.613L243.16 139.423L240.761 143.217L238.295 146.988L235.765 150.726L233.179 154.427L231.379 156.92" fill="#0E0C15"/>
    <path d="M240.699 32.6497L242.48 33.8392L244.165 35.1956L245.747 36.7149L247.225 38.3974L248.594 40.239L249.853 42.2362L250.997 44.3863L252.023 46.6869L252.932 49.1328L253.718 51.719L254.383 54.4418L254.924 57.2934L255.341 60.2715L255.631 63.3671L255.792 66.5778L255.828 69.8971L255.732 73.3177L255.508 76.8354L255.158 80.4392L254.68 84.1226L254.076 87.8819L253.347 91.7056L252.492 95.5888L251.515 99.5237L250.414 103.502L249.197 107.515L247.862 111.557L246.413 115.617L244.855 119.689L243.188 123.763L241.415 127.833L239.541 131.889L237.568 135.923L235.501 139.929L233.346 143.896L231.105 147.819L228.785 151.688L227.985 152.958" fill="#0E0C15"/>
    <path d="M216.087 19.9695L218.46 21.2424L220.748 22.6936L222.949 24.3153L225.058 26.109L227.073 28.0682L228.986 30.1906L230.794 32.4746L232.496 34.9142L234.083 37.508L235.557 40.2485L236.912 43.1305L238.147 46.1502L239.258 49.3016L240.246 52.5741L241.103 55.9668L241.831 59.4733L242.426 63.0846L242.888 66.7971L243.216 70.5993L243.408 74.4849L243.466 78.4489L243.389 82.48L243.176 86.5717L242.828 90.7165L242.343 94.9055L241.723 99.1324L240.971 103.386L240.088 107.66L239.074 111.945L237.934 116.23L236.668 120.511L235.278 124.776L233.768 129.017L232.138 133.227L230.394 137.396L228.541 141.517L226.58 145.583L224.809 149.018" fill="#0E0C15"/>
    <path d="M188.675 9.5427L191.65 10.6247L194.564 11.8925L197.409 13.3449L200.184 14.9794L202.879 16.7919L205.493 18.7765L208.018 20.9329L210.45 23.2562L212.786 25.7414L215.017 28.387L217.14 31.1868L219.151 34.1359L221.047 37.2277L222.824 40.456L224.476 43.8146L226.003 47.2983L227.402 50.8995L228.665 54.612L229.793 58.4294L230.782 62.3441L231.631 66.3473L232.34 70.4314L232.903 74.5876L233.324 78.8107L233.6 83.0882L233.729 87.4137L233.71 91.781L233.543 96.1773L233.23 100.599L232.771 105.032L232.17 109.47L231.425 113.904L230.535 118.326L229.506 122.725L228.338 127.093L227.031 131.421L225.592 135.704L224.021 139.93L222.325 144.091L221.87 145.112" fill="#0E0C15"/>
    <path d="M157.737 2.75145L161.237 3.35188L164.71 4.14445L168.144 5.12912L171.537 6.3022L174.88 7.66607L178.165 9.21703L181.389 10.9513L184.544 12.8676L187.624 14.9596L190.622 17.2247L193.535 19.6568L196.355 22.2544L199.076 25.0112L201.693 27.9236L204.2 30.9889L206.592 34.1932L208.866 37.5365L211.018 41.0102L213.043 44.6076L214.934 48.3213L216.688 52.1463L218.305 56.0737L219.776 60.0983L221.102 64.2077L222.279 68.398L223.308 72.6579L224.184 76.9796L224.904 81.3557L225.469 85.7786L225.874 90.2381L226.119 94.7254L226.208 99.2304L226.136 103.747L225.906 108.265L225.519 112.775L224.975 117.267L224.272 121.734L223.414 126.167L222.402 130.557L221.237 134.894L219.924 139.173L219.186 141.309" fill="#0E0C15"/>
    <path d="M123.276 2.03993L127.115 1.86429L130.964 1.88578L134.819 2.10315L138.671 2.51649L142.513 3.12324L146.338 3.92468L150.137 4.91946L153.904 6.10253L157.63 7.47782L161.31 9.04147L164.934 10.7896L168.497 12.7198L171.992 14.8245L175.411 17.1035L178.751 19.5506L182.001 22.1635L185.156 24.9342L188.208 27.8629L191.152 30.9409L193.984 34.1616L196.699 37.519L199.289 41.0065L201.75 44.6153L204.076 48.3416L206.264 52.178L208.305 56.1181L210.201 60.1528L211.944 64.2723L213.536 68.4702L214.968 72.7388L216.241 77.0681L217.351 81.4519L218.295 85.8772L219.07 90.3406L219.675 94.8317L220.111 99.3405L220.377 103.861L220.473 108.378L220.397 112.889L220.151 117.382L219.733 121.849L219.144 126.281L218.386 130.67L217.462 135.007L216.779 137.684" fill="#0E0C15"/>
    <path d="M79.1221 13.5422L82.827 11.9912L86.6103 10.6222L90.4618 9.43527L94.3752 8.43671L98.343 7.62389L102.359 7.00078L106.413 6.56974L110.497 6.33331L114.606 6.29161L118.732 6.44333L122.865 6.78962L126.998 7.3294L131.123 8.06002L135.233 8.98151L139.317 10.0926L143.369 11.392L147.38 12.8773L151.344 14.5484L155.253 16.3964L159.098 18.4214L162.872 20.6183L166.57 22.9807L170.181 25.5075L173.699 28.1936L177.117 31.0352L180.428 34.0259L183.626 37.1581L186.707 40.4257L189.661 43.8222L192.486 47.3425L195.175 50.9792L197.719 54.7245L200.117 58.5735L202.362 62.5173L204.451 66.5458L206.382 70.6552L208.149 74.8341L209.749 79.0762L211.179 83.3701L212.434 87.7121L213.513 92.0907L214.415 96.4984L215.136 100.926L215.679 105.364L216.04 109.806L216.22 114.243L216.217 118.665L216.033 123.061L215.663 127.427L215.114 131.751L214.686 134.257" fill="#0E0C15"/>
    <path d="M38.5311 42.4029L41.4119 39.5221L44.4343 36.7805L47.5905 34.1829L50.8745 31.7357L54.2811 29.4414L57.8027 27.3052L61.433 25.3333L65.167 23.5283L68.9958 21.8964L72.9143 20.4403L76.9124 19.1598L80.9851 18.06L85.1198 17.1411L89.3139 16.4054L93.556 15.8569L97.8398 15.494L102.155 15.3222L106.496 15.3399L110.853 15.5459L115.217 15.9403L119.579 16.5204L123.932 17.2865L128.266 18.2383L132.576 19.3747L136.848 20.6943L141.076 22.1922L145.254 23.867L149.372 25.715L153.423 27.7312L157.396 29.9117L161.288 32.254L165.087 34.7529L168.785 37.4049L172.379 40.2047L175.858 43.1449L179.219 46.2203L182.453 49.4247L185.555 52.7516L188.518 56.1948L191.336 59.748L194.001 63.4049L196.513 67.1578L198.863 70.9992L201.05 74.9203L203.068 78.9134L204.915 82.9722L206.586 87.0879L208.077 91.2529L209.384 95.4596L210.505 99.698L211.441 103.962L212.19 108.242L212.75 112.528L213.119 116.816L213.298 121.093L213.287 125.354L213.082 129.589L212.939 131.114" fill="#0E0C15"/>
    <path d="M13.2101 81.1548L14.9355 77.5385L16.8404 74.0029L18.9222 70.5559L21.1773 67.2061L23.6004 63.9564L26.1867 60.8165L28.9334 57.7916L31.8369 54.8907L34.8908 52.1148L38.0863 49.4705L41.4209 46.9652L44.8843 44.6014L48.4729 42.383L52.1791 40.3176L55.9965 38.4088L59.9175 36.6619L63.9359 35.0781L68.0428 33.6611L72.228 32.4135L76.4853 31.3366L80.807 30.4328L85.1843 29.7059L89.6085 29.1574L94.0693 28.7895L98.5617 28.6025L103.074 28.5949L107.601 28.7681L112.129 29.1194L116.65 29.6516L121.158 30.3595L125.64 31.2468L130.092 32.3111L134.501 33.5474L138.86 34.9568L143.163 36.5343L147.398 38.2736L151.558 40.176L155.636 42.2364L159.621 44.4497L163.507 46.8135L167.284 49.3239L170.949 51.9733L174.494 54.7567L177.91 57.6677L181.192 60.7014L184.334 63.854L187.328 67.1152L190.168 70.4839L192.849 73.9485L195.367 77.5056L197.718 81.146L199.896 84.8636L201.899 88.6494L203.723 92.4958L205.362 96.3991L206.813 100.348L208.074 104.337L209.145 108.358L210.022 112.401L210.707 116.461L211.195 120.528L211.49 124.595L211.579 128.439" fill="#0E0C15"/>
    <path d="M2.3348 126.789L2.68496 123.001L3.23483 119.23L3.97937 115.483L4.91983 111.766L6.05618 108.087L7.38592 104.451L8.90911 100.87L10.6206 97.3486L12.5167 93.8903L14.5961 90.5064L16.8498 87.201L19.2793 83.9803L21.8781 80.853L24.6413 77.8243L27.565 74.9006L30.6442 72.0869L33.8713 69.3907L37.24 66.8133L40.7438 64.3636L44.3755 62.0441L48.1296 59.8599L51.9989 57.8184L55.9769 55.9211L60.0533 54.1729L64.2221 52.5777L68.4744 51.1367L72.8012 49.8537L77.195 48.7312L81.6444 47.7706L86.1443 46.9768L90.686 46.351L95.2568 45.8935L99.8528 45.6052L104.46 45.4852L109.073 45.5345L113.68 45.7531L118.275 46.1412L122.844 46.6987L127.382 47.4242L131.879 48.3154L136.325 49.3721L140.713 50.5894L145.035 51.9659L149.281 53.4992L153.443 55.1841L157.512 57.0208L161.48 59.0041L165.341 61.1315L169.085 63.3966L172.708 65.7932L176.203 68.3201L179.561 70.9694L182.775 73.7365L185.843 76.6171L188.753 79.6054L191.503 82.6947L194.087 85.8801L196.502 89.1527L198.744 92.5061L200.808 95.9355L202.689 99.4343L204.385 102.994L205.89 106.61L207.203 110.273L208.324 113.978L209.248 117.716L209.977 121.482L210.51 125.264L210.595 126.241" fill="#0E0C15"/>
    <path d="M3.88122 163.068L3.44885 159.609L3.21502 156.124L3.18224 152.615L3.3478 149.092L3.7131 145.559L4.27685 142.025L5.03787 138.496L5.99594 134.979L7.14877 131.483L8.49621 128.01L10.0371 124.57L11.7662 121.17L13.6813 117.816L15.7783 114.513L18.0536 111.27L20.502 108.091L23.1198 104.985L25.9033 101.956L28.8472 99.0126L31.9454 96.1596L35.1927 93.4001L38.5803 90.7432L42.1019 88.1924L45.7538 85.7515L49.5257 83.4282L53.4126 81.2275L57.4056 79.1532L61.4973 77.2078L65.6801 75.399L69.9449 73.7254L74.2831 72.1909L78.6858 70.8017L83.1465 69.5592L87.6528 68.4657L92.1983 67.5253L96.7754 66.7378L101.373 66.1071L105.981 65.6318L110.591 65.312L115.195 65.1502L119.781 65.1452L124.344 65.2993L128.871 65.6115L133.354 66.083L137.787 66.7087L142.159 67.4887L146.462 68.419L150.688 69.5022L154.828 70.7322L158.871 72.1087L162.814 73.6294L166.646 75.2904L170.361 77.0866L173.954 79.018L177.416 81.0746L180.74 83.2563L183.921 85.5569L186.951 87.9749L189.824 90.5043L192.535 93.1373L195.082 95.8714L197.459 98.7003L199.662 101.619L201.687 104.617L203.528 107.695L205.186 110.844L206.652 114.057L207.926 117.331L209.009 120.657L209.898 124.028" fill="#0E0C15"/>
    <path d="M11.8633 195.968L10.9481 193.055L10.2226 190.082L9.6892 187.049L9.3492 183.966L9.20507 180.836L9.25689 177.664L9.50719 174.459L9.95202 171.225L10.5917 167.969L11.4247 164.699L12.4498 161.419L13.6683 158.135L15.0752 154.855L16.6705 151.586L18.4515 148.331L20.4145 145.101L22.5533 141.898L24.8652 138.732L27.3478 135.607L29.9922 132.531L32.7995 129.508L35.7612 126.547L38.872 123.651L42.1256 120.827L45.5158 118.081L49.0361 115.418L52.6778 112.843L56.4358 110.362L60.3025 107.979L64.269 105.701L68.3305 103.534L72.4777 101.477L76.6984 99.5367L80.9897 97.7177L85.338 96.0214L89.7394 94.4539L94.1812 93.0181L98.6572 91.7148L103.158 90.5506L107.674 89.5242L112.195 88.6382L116.714 87.8936L121.222 87.292L125.708 86.8357L130.163 86.5259L134.581 86.3629L138.951 86.3465L143.265 86.4767L147.516 86.7509L151.694 87.1719L155.79 87.7344L159.799 88.441L163.708 89.2891L167.514 90.2763L171.207 91.4026L174.781 92.6616L178.231 94.0533L181.549 95.5739L184.728 97.2185L187.763 98.9868L190.649 100.874L193.378 102.875L195.945 104.99L198.348 107.208L200.582 109.53L202.643 111.948L204.529 114.459L206.236 117.055L207.758 119.735L209.092 122.49L210.024 124.787L210.033 124.811L210.082 124.931L210.105 124.989L210.135 125.06L210.24 125.319" fill="#0E0C15"/>
    <path d="M210.524 126.08L210.235 125.313L210.073 124.863L210.069 124.854L210.053 124.81L209.95 124.523L209.859 124.273L209.51 123.244" fill="#0E0C15"/>
    <path d="M210.07 124.858L210.048 124.786L209.914 124.341L209.652 123.402" fill="#0E0C15"/>
    <path d="M22.7587 223.071L21.8512 220.71L21.1269 218.266L20.5847 215.742L20.2282 213.143L20.0614 210.474L20.0803 207.739L20.2927 204.943L20.6921 202.092L21.2812 199.192L22.0547 196.247L23.0153 193.264L24.1606 190.25L25.4878 187.206L26.997 184.145L28.6859 181.066L30.5516 177.979L32.5879 174.891L34.7924 171.804L37.1599 168.726L39.6868 165.666L42.3678 162.626L45.2005 159.614L48.1773 156.637L51.2931 153.701L54.5418 150.808L57.9167 147.967L61.4106 145.183L65.0155 142.463L68.7268 139.811L72.5353 137.234L76.4349 134.735L80.4178 132.322L84.4767 129.997L88.6 127.765L92.7826 125.633L97.0146 123.6L101.288 121.675L105.592 119.861L109.923 118.162L114.269 116.58L118.621 115.12L122.972 113.782L127.31 112.569L131.63 111.484L135.922 110.53L140.175 109.709L144.385 109.022L148.541 108.471L152.634 108.056L156.658 107.776L160.605 107.631L164.465 107.624L168.234 107.753L171.903 108.018L175.461 108.421L178.907 108.957L182.231 109.627L185.429 110.429L188.496 111.359L191.423 112.416L194.205 113.598L196.84 114.902L199.318 116.329L201.637 117.871L203.794 119.529L205.785 121.294L207.608 123.165L209.257 125.141L210.453 126.82L210.473 126.85L210.485 126.864L210.733 127.213L211.96 129.264L212.007 129.344L212.027 129.379" fill="#0E0C15"/>
    <path d="M215.463 135.59L214.754 134.381L214.035 133.12L213.339 131.864L212.939 131.117L212.668 130.614L212.02 129.371L211.945 129.218L211.577 128.491L211.398 128.135" fill="#0E0C15"/>
    <path d="M211.946 129.216L211.577 128.432L211.437 128.133L210.919 126.985L210.67 126.41L210.592 126.234L210.424 125.846L210.364 125.702L210.23 125.379L210.18 125.258L210.15 125.188L210.113 125.1L210.088 125.037L209.954 124.716" fill="#0E0C15"/>
    <path d="M38.4285 251.861L37.4565 250.224L36.6577 248.48L36.0319 246.631L35.5807 244.683L35.3052 242.637L35.2039 240.499L35.2823 238.271L35.5402 235.958L35.9763 233.563L36.5906 231.09L37.3819 228.547L38.3489 225.934L39.4903 223.261L40.8024 220.531L42.2851 217.748L43.9346 214.921L45.7511 212.05L47.7306 209.143L49.8668 206.208L52.1585 203.249L54.5969 200.272L57.1806 197.281L59.9033 194.285L62.7626 191.29L65.752 188.3L68.8653 185.321L72.0949 182.362L75.437 179.424L78.8816 176.518L82.4234 173.646L86.0549 170.816L89.7713 168.033L93.5633 165.305L97.4237 162.633L101.345 160.026L105.316 157.488L109.333 155.023L113.386 152.637L117.468 150.335L121.567 148.121L125.679 146.004L129.794 143.982L133.904 142.062L138.001 140.245L142.076 138.539L146.121 136.941L150.129 135.461L154.088 134.098L157.996 132.857L161.84 131.738L165.617 130.745L169.316 129.878L172.934 129.137L176.459 128.526L179.886 128.045L183.21 127.696L186.422 127.477L189.516 127.394L192.489 127.439L195.334 127.616L198.046 127.922L200.62 128.357L203.051 128.922L205.333 129.612L207.463 130.43L209.438 131.37L211.252 132.434L212.907 133.614L214.398 134.91L215.722 136.32L216.878 137.84" fill="#0E0C15"/>
    <path d="M225.441 149.832L224.813 149.024L224.501 148.626L223.477 147.281L222.471 145.936L221.873 145.116L221.486 144.588L220.522 143.239L219.579 141.889L219.188 141.316L218.656 140.539L217.757 139.19L216.881 137.844L216.784 137.691L216.028 136.5L215.197 135.159" fill="#0E0C15"/>
    <path d="M55.2786 276.506L54.687 275.422L54.256 274.217L53.9906 272.892L53.8869 271.451L53.9488 269.895L54.1763 268.229L54.5682 266.455L55.1243 264.574L55.8487 262.59L56.736 260.507L57.784 258.329L58.9936 256.06L60.3613 253.707L61.8844 251.271L63.5605 248.758L65.3871 246.171L67.3641 243.516L69.4839 240.8L71.7427 238.025L74.1367 235.199L76.6623 232.327L79.313 229.416L82.0837 226.468L84.9709 223.492L87.9679 220.493L91.0698 217.477L94.2704 214.451L97.5619 211.42L100.937 208.389L104.39 205.367L107.916 202.358L111.503 199.37L115.148 196.407L118.845 193.474L122.582 190.581L126.354 187.732L130.153 184.932L133.97 182.186L137.799 179.5L141.631 176.884L145.459 174.335L149.275 171.867L153.072 169.478L156.841 167.175L160.575 164.962L164.266 162.844L167.909 160.827L171.494 158.91L175.015 157.104L178.464 155.406L181.835 153.822L185.122 152.356L188.319 151.008L191.419 149.78L194.415 148.675L197.303 147.698L200.077 146.849L202.729 146.128L205.257 145.539L207.657 145.078L209.902 144.752L209.924 144.748L212.055 144.551L214.043 144.484L215.886 144.55L217.58 144.747L219.123 145.074L220.511 145.532L221.746 146.117L222.823 146.827L223.742 147.663L224.499 148.62" fill="#0E0C15"/>
    <path d="M75.4154 301.044L75.1184 300.64L74.973 300.101L74.9806 299.426L75.1398 298.617L75.4508 297.676L75.9109 296.604L76.5227 295.404L77.2849 294.078L78.1975 292.624L79.2594 291.046L80.4665 289.349L81.8202 287.535L83.3144 285.609L84.9475 283.571L86.7172 281.427L88.6196 279.181L90.6521 276.837L92.8124 274.399L95.0952 271.871L97.4969 269.26L100.009 266.568L102.631 263.804L105.354 260.972L108.177 258.077L111.092 255.124L114.095 252.12L117.177 249.072L120.335 245.984L123.561 242.861L126.848 239.714L130.191 236.545L133.581 233.365L137.014 230.177L140.482 226.985L143.977 223.801L147.492 220.629L151.023 217.476L154.558 214.347L158.091 211.249L161.618 208.19L165.128 205.173L168.617 202.207L172.075 199.298L175.497 196.45L178.876 193.668L182.204 190.959L185.476 188.328L188.686 185.781L191.824 183.323L194.888 180.959L197.868 178.692L200.761 176.53L203.561 174.471L206.262 172.523L208.86 170.689L211.349 168.971L213.724 167.374L215.981 165.903L218.114 164.557L220.121 163.341L222.001 162.252L223.745 161.297L225.356 160.475L226.827 159.788L228.157 159.236L229.342 158.822L230.38 158.545L231.271 158.407L232.016 158.406L232.611 158.539L233.057 158.808" fill="#0E0C15"/>
    <path d="M255.776 180.221L255.718 180.173L254.372 179.087L254.355 179.073L252.972 177.935L251.578 176.766L250.397 175.755L250.19 175.578L248.811 174.373L247.438 173.152L246.436 172.241L246.074 171.915L244.721 170.662L243.376 169.395L242.044 168.114L240.72 166.821L239.409 165.512L238.679 164.769L238.111 164.194L236.826 162.863L235.555 161.522L234.299 160.169L233.057 158.809L231.831 157.439L231.797 157.4L231.38 156.927L230.622 156.062L229.43 154.678L228.254 153.285L227.097 151.889L225.96 150.485L224.841 149.079" fill="#0E0C15"/>
    <path d="M97.0799 323.317L97.2973 323.441L97.6525 323.417L98.1492 323.244L98.7838 322.925L99.5562 322.459L100.464 321.847L101.505 321.088L102.681 320.186L103.99 319.139L105.429 317.949L106.994 316.619L108.685 315.15L110.496 313.548L112.425 311.814L114.468 309.951L116.621 307.963L118.881 305.852L121.245 303.619L123.706 301.275L126.26 298.821L128.903 296.261L131.629 293.602L134.431 290.85L137.307 288.007L140.248 285.081L143.25 282.076L146.308 278.999L149.414 275.855L152.562 272.653L155.746 269.398L158.96 266.097L162.196 262.754L165.449 259.379L168.713 255.979L171.978 252.557L175.242 249.124L178.495 245.686L181.731 242.248L184.944 238.82L188.127 235.407L191.276 232.015L194.379 228.654L197.436 225.33L200.435 222.047L203.375 218.814L206.249 215.637L209.05 212.52L211.772 209.474L214.412 206.501L216.961 203.61L219.417 200.805L221.775 198.091L224.03 195.472L226.179 192.957L228.215 190.546L230.138 188.247L231.941 186.064L233.623 184.001L235.177 182.062L236.604 180.248L237.903 178.566L239.068 177.013L240.102 175.598L240.998 174.32L241.755 173.183L242.375 172.19L242.854 171.339L243.193 170.634L243.392 170.073L243.453 169.658L243.375 169.39" fill="#0E0C15"/>
    <path d="M120.303 343.55L121.067 344.153L121.96 344.596L122.98 344.88L124.124 345.005L125.39 344.97L126.774 344.774L128.277 344.419L129.895 343.903L131.626 343.227L133.466 342.39L135.414 341.395L137.463 340.244L139.611 338.938L141.853 337.482L144.185 335.875L146.605 334.121L149.104 332.223L151.681 330.185L154.332 328.009L157.048 325.7L159.825 323.264L162.658 320.704L165.54 318.027L168.468 315.236L171.433 312.339L174.433 309.337L177.457 306.239L180.505 303.049L183.565 299.777L186.636 296.428L189.706 293.009L192.774 289.527L195.831 285.986L198.871 282.398L201.889 278.766L204.878 275.099L207.832 271.404L210.746 267.692L213.613 263.965L216.426 260.234L219.182 256.508L221.873 252.79L224.496 249.09L227.043 245.416L229.512 241.774L231.896 238.171L234.191 234.617L236.392 231.117L238.496 227.677L240.496 224.307L242.391 221.012L244.176 217.799L245.848 214.673L247.405 211.639L248.844 208.704L250.161 205.875L251.354 203.158L252.42 200.555L253.358 198.075L253.412 197.917L253.413 197.911L253.415 197.909L254.167 195.719L254.844 193.492L255.393 191.398L255.809 189.44L256.092 187.623L256.242 185.95L256.257 184.426L256.141 183.051L255.891 181.827L255.513 180.756L255.004 179.84L254.366 179.079" fill="#0E0C15"/>
    <path d="M145.65 362.094L147.095 362.943L148.654 363.621L150.321 364.128L152.094 364.466L153.969 364.631L155.943 364.624L158.014 364.442L160.178 364.085L162.43 363.554L164.768 362.85L167.184 361.973L169.676 360.925L172.239 359.709L174.866 358.326L177.553 356.779L180.298 355.069L183.092 353.199L185.931 351.172L188.811 348.993L191.722 346.666L194.662 344.196L197.624 341.588L200.601 338.846L203.587 335.976L206.579 332.981L209.568 329.869L212.55 326.647L215.516 323.319L218.465 319.894L221.388 316.378L224.277 312.778L227.129 309.102L229.936 305.354L232.695 301.544L235.4 297.682L238.043 293.772L240.621 289.823L243.129 285.844L245.562 281.843L247.912 277.827L250.176 273.806L252.352 269.785L254.431 265.777L256.414 261.784L258.294 257.819L260.067 253.886L261.733 249.996L263.284 246.157L264.719 242.373L266.036 238.657L267.232 235.012L268.305 231.443L269.254 227.964L270.076 224.576L270.771 221.287L271.336 218.105L271.771 215.036L272.074 212.086L272.246 209.257L272.289 206.557L272.202 203.99L271.983 201.562L271.638 199.275L271.162 197.135L270.557 195.148L270.494 194.986L270.48 194.954L269.829 193.315L268.975 191.639L268 190.123L266.907 188.767L265.696 187.576L264.37 186.551" fill="#0E0C15"/>
    <path d="M271.099 190.906L269.758 190.083L269.475 189.903L268.415 189.235L267.068 188.364L265.918 187.603L265.718 187.471L264.37 186.555L263.02 185.617L262.161 185.009L261.67 184.659L260.321 183.679L258.972 182.679L258.368 182.222L258.304 182.173L257.627 181.661L256.285 180.619L255.721 180.174" fill="#0E0C15"/>
    <path d="M172.193 377.848L174.285 378.843L176.47 379.661L178.744 380.299L181.104 380.755L183.546 381.028L186.064 381.117L188.656 381.021L191.313 380.738L194.034 380.269L196.812 379.614L199.643 378.776L202.519 377.757L205.436 376.557L208.39 375.178L211.372 373.622L214.377 371.891L217.401 369.987L220.437 367.917L223.477 365.683L226.52 363.29L229.555 360.743L232.578 358.046L235.582 355.202L238.562 352.218L241.511 349.1L244.425 345.855L247.297 342.488L250.121 339.007L252.89 335.418L255.601 331.731L258.247 327.948L260.821 324.08L263.32 320.132L265.739 316.115L268.074 312.036L270.317 307.904L272.468 303.726L274.52 299.512L276.468 295.268L278.307 291.005L280.037 286.73L281.652 282.452L283.151 278.18L284.53 273.924L285.787 269.689L286.919 265.485L287.924 261.323L288.798 257.208L289.54 253.15L290.151 249.155L290.631 245.233L290.977 241.39L291.188 237.635L291.265 233.973L291.208 230.415L291.016 226.964L290.691 223.63L290.231 220.417L289.643 217.332L288.924 214.378L288.078 211.563L287.106 208.892L286.01 206.37L284.793 204.002L283.455 201.794L282.001 199.746L280.434 197.863L278.759 196.148L277.737 195.26L277.726 195.251L277.715 195.24L276.978 194.602L275.094 193.229L273.111 192.035" fill="#0E0C15"/>
    <path d="M278.091 194.642L276.856 194.027L276.708 193.95L275.801 193.482L275.613 193.386L274.365 192.721L273.109 192.032L271.85 191.319L270.585 190.582L270.317 190.423" fill="#0E0C15"/>
    <path d="M210.072 124.862L209.894 124.027L210.072 124.862Z" fill="#0E0C15"/>
    <path d="M280.358 195.59L280.431 195.624L280.465 195.64L280.52 195.668L280.64 195.727L280.715 195.764L280.724 195.768L282.946 196.855L285.453 198.307L287.873 199.942L290.202 201.754L292.435 203.743L294.57 205.903L296.6 208.229L298.521 210.721L300.33 213.372L302.022 216.181L303.593 219.14L305.04 222.243L306.362 225.484L307.557 228.858L308.619 232.357L309.548 235.976L310.34 239.706L310.992 243.543L311.506 247.48L311.879 251.506L312.11 255.615L312.2 259.798L312.149 264.047L311.954 268.353L311.617 272.71L311.137 277.106L310.515 281.535L309.752 285.989L308.852 290.456L307.816 294.928L306.647 299.396L305.343 303.852L303.911 308.287L302.349 312.691L300.664 317.056L298.856 321.371L296.934 325.633L294.897 329.828L292.754 333.951L290.505 337.992L288.155 341.942L285.709 345.794L283.174 349.541L280.551 353.175L277.848 356.689L275.074 360.078L272.228 363.332L269.32 366.448L266.354 369.419L263.338 372.235L260.274 374.895L257.172 377.392L254.037 379.723L250.876 381.886L247.693 383.873L244.498 385.681L241.293 387.307L238.088 388.748L234.886 390.001L231.697 391.064L228.523 391.938L225.373 392.62L222.252 393.109L219.166 393.406L216.123 393.508L213.126 393.415L210.182 393.128L207.296 392.649L204.473 391.981L201.72 391.124M201.72 391.124L204.77 392.252L207.794 393.312L210.787 394.3L213.712 395.218L216.729 396.155L219.712 397.019L222.66 397.813L225.571 398.532L228.768 399.317L231.693 399.977L234.575 400.561L237.916 401.174L240.805 401.692L243.652 402.135L246.451 402.501L249.962 402.939L252.758 403.234L255.506 403.452L259.121 403.697L261.858 403.84L264.543 403.906L268.245 403.952L270.911 403.938L273.521 403.846L277.293 403.692L279.878 403.519L283.671 403.166L286.226 402.91L288.721 402.573L292.55 402.016L295.007 401.596L298.831 400.839L301.247 400.335L303.599 399.749L307.424 398.789L309.728 398.118L313.523 396.96L315.774 396.203L319.525 394.851L321.722 394.007L325.416 392.461L327.555 391.533L331.182 389.8L333.258 388.788L336.809 386.873L338.819 385.776L342.282 383.682L344.223 382.503L347.588 380.24L349.456 378.979L352.716 376.551L354.507 375.209L357.649 372.623L359.365 371.204L362.378 368.466L364.014 366.969L366.891 364.087L368.447 362.519L371.18 359.5L372.651 357.859L375.235 354.714L376.623 353.005L379.048 349.743L380.349 347.969L382.61 344.598L383.825 342.762L385.918 339.293L387.046 337.397L388.961 333.841L390.001 331.888L391.735 328.253L392.688 326.248L393.562 324.176L395.101 320.493L395.888 318.374L397.239 314.634L397.939 312.473L399.097 308.688L399.713 306.487L400.676 302.673L401.207 300.435L401.975 296.598L402.423 294.33L402.793 292.003L403.361 288.187L403.65 285.834L404.019 282.022L404.23 279.649L404.367 277.222L404.535 273.462L404.596 271.02L404.583 268.53L404.553 264.834L404.468 262.332L404.244 258.68M201.72 391.124L196.021 388.905L192.977 387.664L189.91 386.357L186.822 384.983L183.714 383.543L181.427 382.45L178.366 380.978L175.285 379.443L172.192 377.846L169.085 376.188L165.966 374.469L162.836 372.691L159.697 370.855L157.976 369.833L154.9 367.982L151.819 366.073L148.733 364.11L145.646 362.092L142.558 360.023L139.473 357.903L136.39 355.731L133.31 353.511L130.238 351.242L127.172 348.925L124.117 346.562L123.282 345.904L120.307 343.554L117.344 341.16L114.395 338.724L111.463 336.249L108.547 333.735L105.648 331.183L102.77 328.595L99.9134 325.974L97.0806 323.318L94.2718 320.631L91.4898 317.912L88.7329 315.165L86.0063 312.391L83.3101 309.588L80.6456 306.762L78.0138 303.913L75.415 301.041L72.854 298.149L70.3285 295.239L67.8433 292.311L65.3975 289.367L62.9908 286.409L60.6283 283.44L59.9823 282.62L57.6072 279.567L55.2775 276.507L52.996 273.437L50.7625 270.361L48.5769 267.281L46.4432 264.197L44.3601 261.11L42.3288 258.024L40.3518 254.94L38.4292 251.859L36.561 248.783L35.5485 247.078L33.6966 243.939L31.9029 240.808L30.17 237.687L28.4951 234.579L26.8822 231.482L25.33 228.4L23.8422 225.335L22.7539 223.063L21.2976 219.951L19.9072 216.86L18.5838 213.789L17.3236 210.742L16.1329 207.718L15.0926 205.052L13.9461 201.994L12.8691 198.966L11.8617 195.966L10.9238 192.998L9.99215 190.032L9.10863 187.04L8.29838 184.086L7.56011 181.166L6.77395 177.98L6.09764 175.049L5.49472 172.156L4.96507 169.305L4.34315 165.928L3.88179 163.072L3.49627 160.262L3.0576 156.76L2.74413 153.953L2.50654 151.195L2.25881 147.588L2.097 144.84L2.01228 142.143L1.96178 138.45L1.95544 135.772L2.02871 133.147L2.18041 129.383L2.33332 126.785L2.92113 120.429L3.23715 117.921L3.78953 114.097L4.19149 111.625L4.94363 107.806L5.43032 105.375L5.99528 103.008L6.95219 99.1865L7.6044 96.8656L8.7585 93.0748L9.49537 90.8059L10.8441 87.0581L11.6683 84.8435L13.2092 81.1512L14.1179 78.996L16.842 73.2762L17.9164 71.2563L19.8327 67.6993L20.9905 65.7477L23.0826 62.2779L24.3238 60.3944L26.5864 57.0245L27.9074 55.2157L30.3331 51.9532L31.7349 50.2201L34.3186 47.0752L35.7975 45.4194L38.5328 42.4059L40.0864 40.8297L42.9646 37.9515L44.5926 36.4574L47.6062 33.7245L49.3025 32.3138L52.4423 29.7327L54.2083 28.4067L57.4619 25.9823L59.2935 24.7423L62.6545 22.4834L64.5455 21.3281L68.004 19.2399L69.9531 18.173L73.4987 16.2605L75.5022 15.2809L79.125 13.5492L81.1802 12.6568L84.87 11.1134L86.9721 10.3082L90.7161 8.95314L92.8651 8.23521L96.6521 7.07224L98.8401 6.43895L102.66 5.47067L104.885 4.92213L107.168 4.44939L110.982 3.68336L113.296 3.29401L117.118 2.72267L119.459 2.4143L125.64 1.81257L128.055 1.65842L131.824 1.48645L134.255 1.40942L136.735 1.40429L140.44 1.43083L142.93 1.4991L145.465 1.63813L149.088 1.85812L151.628 2.06666L154.213 2.34599L157.737 2.753L160.318 3.0969L162.941 3.51019L166.35 4.09797L168.964 4.57075L171.616 5.11173L174.303 5.71844L177.534 6.4668L180.206 7.12914L182.911 7.85467L185.647 8.646L188.675 9.54091L191.39 10.3803L194.133 11.2802L196.902 12.2434L199.71 13.2698L202.45 14.2747L205.214 15.3378L208.001 16.459L210.809 17.6384L213.638 18.8771L216.088 19.9705L218.877 21.2396L221.684 22.5631L224.507 23.9421L227.345 25.3743L230.196 26.8607L233.062 28.3991L235.064 29.4887L237.877 31.0448L240.701 32.65L243.532 34.306L246.371 36.0099L249.216 37.7606L252.067 39.5593L254.921 41.4048L257.778 43.2958L260.636 45.2285L261.968 46.1336L264.762 48.0675L267.553 50.042L270.342 52.0581L273.128 54.1134L275.909 56.2092L278.685 58.3403L281.453 60.5119L284.213 62.7178L286.962 64.9589L289.701 67.2329L292.428 69.5423L295.143 71.8833L297.84 74.2546L300.525 76.6563L303.193 79.087L305.842 81.5456L308.472 84.0319L311.082 86.5436L313.672 89.0805L316.239 91.6402L318.783 94.2239L321.301 96.8278L323.796 99.4519L326.262 102.095L328.7 104.758L331.111 107.437L333.491 110.131L335.84 112.841L338.158 115.563L340.442 118.298L342.693 121.044L344.908 123.8L347.088 126.564L349.231 129.336L351.335 132.116L353.401 134.899L355.427 137.687L357.414 140.478L359.358 143.269L361.261 146.061L362.2 147.442L364.102 150.298L365.958 153.152L367.769 156.002L369.533 158.848L371.249 161.687L372.916 164.52L374.537 167.343L376.106 170.158L377.188 172.145L378.74 175.012L380.24 177.865L381.685 180.706L383.078 183.529L384.415 186.341L385.697 189.132L386.787 191.569L388.039 194.401L389.235 197.213L390.373 200.004L391.45 202.772L392.467 205.516L393.492 208.311L394.471 211.087L395.387 213.834L396.24 216.552L397.134 219.57L397.94 222.313L398.685 225.024L399.361 227.703L400.734 233.616L401.29 236.275L401.781 238.897L402.367 242.295L402.797 244.926L403.158 247.518L403.567 251.03L403.863 253.624L404.089 256.174L404.244 258.68M404.244 258.68L403.825 255.037L403.21 251.414L402.404 247.814L401.405 244.249L400.216 240.721L398.837 237.242L397.269 233.814L395.517 230.446L393.585 227.146L391.475 223.916L389.193 220.765L386.742 217.7L384.127 214.725L381.352 211.85L378.42 209.076L375.339 206.413L372.115 203.861L368.754 201.43L365.264 199.121L361.65 196.94L357.918 194.893L354.077 192.983L350.132 191.214L346.093 189.59L341.966 188.115L337.763 186.789L333.488 185.616L329.151 184.598L324.763 183.739L320.329 183.038L315.858 182.501L311.36 182.127L306.842 181.915L302.317 181.867L297.789 181.98L293.272 182.256L288.77 182.695L284.296 183.296L279.858 184.058L275.461 184.981L271.118 186.061L266.836 187.294L265.914 187.597M231.694 399.977L234.987 400.58L238.319 400.987L241.688 401.196L245.083 401.206L248.501 401.016L251.934 400.627L255.374 400.041L258.817 399.258L262.254 398.281L265.681 397.109L269.088 395.744L272.47 394.185L275.821 392.439L279.132 390.508L282.401 388.397L285.617 386.109L288.776 383.648L291.871 381.02L294.896 378.228L297.844 375.275L300.71 372.169L303.488 368.916L306.173 365.523L308.759 361.999L311.242 358.346L313.615 354.574L315.874 350.69L318.014 346.699L320.032 342.611L321.921 338.434L323.681 334.176L325.307 329.848L326.796 325.454L328.144 321.009L329.349 316.515L330.407 311.984L331.316 307.424L332.077 302.846L332.686 298.257L333.144 293.669L333.451 289.089L333.602 284.526L333.601 279.989L333.444 275.49L333.132 271.034L332.668 266.631L332.057 262.29L331.292 258.019L330.38 253.826L329.322 249.722L328.122 245.713L326.774 241.807L325.29 238.012L323.67 234.334L321.918 230.779L320.038 227.357L318.033 224.071L315.908 220.93L313.667 217.94L311.314 215.106L308.851 212.434L306.287 209.928L303.627 207.592L300.875 205.426L298.039 203.442L295.12 201.638L292.128 200.019L289.067 198.59L285.942 197.352L282.76 196.306L281.824 196.049L281.157 195.852L281.099 195.834M282.937 196.474L281.91 196.13L281.444 195.965L281.137 195.855L281.101 195.842L281.075 195.833L280.872 195.762L280.354 195.568L279.914 195.403M281.484 196.05L280.917 195.817L280.848 195.788L280.676 195.717L280.55 195.667L280.356 195.587L280.261 195.546L279.219 195.099L278.401 194.734L278.071 194.586L276.917 194.049L276.707 193.948M268.244 403.951L271.95 403.799L275.654 403.448L279.348 402.899L283.023 402.151L286.674 401.208L290.294 400.068L293.874 398.736L297.409 397.207L300.891 395.491L304.312 393.589L307.67 391.505L310.954 389.243L314.158 386.807L317.278 384.2L320.305 381.429L323.234 378.495L326.059 375.407L328.774 372.171L331.374 368.792L333.855 365.277L336.213 361.635L338.44 357.868L340.532 353.989L342.484 349.999L344.294 345.911L345.957 341.73L347.472 337.468L348.834 333.13L350.043 328.726L351.092 324.264L351.982 319.753L352.707 315.203L353.269 310.62L353.667 306.015L353.901 301.397L353.969 296.776L353.873 292.16L353.61 287.558L353.183 282.98L352.59 278.436L351.834 273.933L350.915 269.48L349.838 265.086L348.606 260.76L347.219 256.511L345.679 252.345L343.992 248.273L342.158 244.303L340.181 240.443L338.067 236.696L335.821 233.072L333.447 229.581L330.949 226.224L328.334 223.009L325.604 219.945L322.765 217.038L319.823 214.291L316.786 211.709L313.657 209.298L310.445 207.059L307.155 205L303.795 203.125L300.37 201.433L296.886 199.934L293.351 198.626L289.77 197.512L286.152 196.592L282.504 195.869L280.349 195.559M282.11 196.049L281.261 195.872L281.07 195.828M307.426 398.79L311.203 397.637L314.923 396.293L318.58 394.76L322.165 393.041L325.675 391.139L329.101 389.058L332.436 386.804L335.674 384.379L338.808 381.787L341.833 379.033L344.741 376.121L347.527 373.056L350.186 369.846L352.712 366.496L355.101 363.015L357.349 359.406L359.45 355.68L361.399 351.84L363.193 347.895L364.826 343.85L366.299 339.715L367.606 335.501L368.747 331.212L369.718 326.859L370.516 322.448L371.14 317.991L371.589 313.493L371.859 308.965L371.954 304.415L371.871 299.852L371.613 295.287L371.181 290.726L370.571 286.178L369.788 281.655L368.829 277.165L367.699 272.716L366.4 268.314L364.936 263.974L363.309 259.698L361.523 255.497L359.582 251.382L357.486 247.357L355.241 243.431L352.853 239.615L350.324 235.912L347.662 232.33L344.872 228.875L341.96 225.558L338.931 222.381L335.789 219.352L332.541 216.479L329.194 213.764L325.756 211.213L322.233 208.83L318.631 206.621L314.96 204.588L311.223 202.735L307.43 201.07L303.587 199.591L299.703 198.306L295.784 197.211L291.839 196.31L287.874 195.603L283.899 195.094L279.92 194.78L278.405 194.737M352.72 376.557L355.86 373.971L358.876 371.231L361.761 368.34L364.513 365.305L367.122 362.132L369.587 358.828L371.9 355.397L374.059 351.85L376.058 348.189L377.893 344.422L379.559 340.556L381.053 336.597L382.372 332.556L383.515 328.439L384.481 324.255L385.265 320.011L385.867 315.715L386.284 311.377L386.515 307.002L386.557 302.602L386.415 298.183L386.087 293.757L385.573 289.327L384.877 284.907L383.998 280.504L382.935 276.127L381.693 271.785L380.271 267.483L378.675 263.234L376.91 259.044L374.977 254.919L372.88 250.87L370.622 246.906L368.209 243.034L365.643 239.26L362.932 235.593L360.079 232.04L357.092 228.608L353.976 225.3L350.738 222.127L347.383 219.094L343.918 216.205L340.351 213.47L336.685 210.891L332.931 208.474L329.096 206.222L325.186 204.14L321.211 202.23L317.177 200.5L313.095 198.95L308.968 197.586L304.805 196.409L300.617 195.419L296.411 194.621L292.195 194.013L287.976 193.595L283.764 193.37L279.567 193.34L275.806 193.489M385.915 339.289L387.837 335.721L389.588 332.056L391.161 328.302L392.553 324.47L393.764 320.561L394.791 316.587L395.631 312.556L396.285 308.475L396.746 304.35L397.017 300.189L397.093 296.002L396.978 291.797L396.668 287.579L396.169 283.358L395.478 279.144L394.599 274.945L393.531 270.765L392.275 266.617L390.834 262.507L389.211 258.444L387.41 254.433L385.433 250.487L383.285 246.607L380.974 242.807L378.496 239.09L375.862 235.467L373.073 231.943L370.136 228.525L367.056 225.221L363.842 222.037L360.499 218.977L357.031 216.048L353.45 213.256L349.759 210.609L345.964 208.11L342.074 205.765L338.097 203.578L334.041 201.552L329.915 199.691L325.726 197.998L321.482 196.478L317.19 195.135L312.862 193.969L308.502 192.987L304.123 192.184L299.73 191.566L295.332 191.13L290.941 190.88L286.563 190.814L282.204 190.935L277.877 191.243L273.59 191.736L272.81 191.861M401.979 296.605L402.556 292.732L402.939 288.825L403.126 284.896L403.117 280.951L402.912 276.997L402.511 273.042L401.915 269.093L401.127 265.159L400.146 261.248L398.976 257.364L397.615 253.518L396.066 249.717L394.333 245.969L392.418 242.279L390.327 238.657L388.063 235.106L385.633 231.636L383.038 228.255L380.281 224.967L377.368 221.782L374.309 218.703L371.105 215.736L367.765 212.889L364.297 210.167L360.705 207.573L356.997 205.114L353.18 202.796L349.259 200.624L345.243 198.601L341.141 196.731L336.962 195.017L332.712 193.462L328.403 192.071L324.04 190.844L319.632 189.786L315.187 188.9L310.714 188.187L306.225 187.649L301.725 187.282L297.223 187.092L292.731 187.074L288.255 187.232L283.803 187.565L279.388 188.075L275.017 188.758L270.694 189.612L269.475 189.905M399.357 227.698L398.42 224.524L397.295 221.401L395.984 218.336L394.486 215.334L392.804 212.4L390.945 209.542L388.911 206.763L386.705 204.069L384.332 201.466L381.795 198.96L379.099 196.554L376.248 194.256L373.247 192.069L370.103 189.998L366.823 188.045L363.411 186.216L359.877 184.512L356.225 182.941L352.461 181.502L348.593 180.203L344.63 179.044L340.578 178.025L336.447 177.15L332.243 176.422L327.975 175.84L323.652 175.408L319.284 175.125L314.876 174.995L310.438 175.016L305.979 175.188L301.508 175.511L297.033 175.981L292.566 176.6L288.113 177.367L283.682 178.281L279.286 179.343L274.929 180.545L270.622 181.889L266.374 183.369L262.191 184.983L262.153 184.998M390.378 200.006L389.212 197.392L387.867 194.854L386.342 192.395L384.644 190.02L382.772 187.733L380.733 185.54L378.531 183.445L376.166 181.451L373.643 179.563L370.967 177.787L368.143 176.126L365.177 174.582L362.075 173.156L358.84 171.856L355.481 170.679L352.007 169.631L348.418 168.717L344.723 167.935L340.931 167.288L337.049 166.778L333.084 166.405L329.043 166.169L324.936 166.072L320.77 166.115L316.553 166.297L312.294 166.619L307.999 167.079L303.68 167.679L299.343 168.414L294.997 169.283L290.653 170.286L286.317 171.421L281.999 172.685L277.708 174.079L273.452 175.595L269.237 177.233L265.076 178.99L260.973 180.858L258.305 182.169M378.741 175.011L377.625 172.959L376.337 171.001L374.877 169.137L373.252 167.371L371.465 165.707L369.516 164.147L367.41 162.696L365.15 161.359L362.737 160.137L360.178 159.032L357.479 158.048L354.643 157.185L351.679 156.446L348.588 155.83L345.38 155.342L342.057 154.984L338.628 154.756L335.096 154.657L331.471 154.69L327.76 154.852L323.97 155.142L320.11 155.565L316.184 156.116L312.201 156.794L308.171 157.601L304.099 158.535L299.994 159.592L295.865 160.77L291.721 162.068L287.568 163.482L283.417 165.012L279.274 166.653L275.148 168.402L271.049 170.256L266.982 172.212L262.956 174.263L258.981 176.409L255.065 178.641L254.356 179.067M364.107 150.304L363.124 148.858L361.981 147.519L360.675 146.286L359.214 145.166L357.597 144.159L355.826 143.268L353.906 142.495L351.838 141.843L349.626 141.312L347.275 140.905L344.79 140.622L342.175 140.461L339.436 140.427L336.575 140.517L333.6 140.735L330.515 141.078L327.326 141.547L324.041 142.14L320.663 142.856L317.202 143.695L313.664 144.654L310.056 145.73L306.384 146.924L302.655 148.237L298.878 149.66L295.058 151.192L291.205 152.833L287.326 154.576L283.429 156.417L279.521 158.355L275.612 160.387L271.706 162.508L267.814 164.713L263.943 166.999L260.102 169.359L256.297 171.791L252.536 174.286L250.402 175.757M347.088 126.561L346.32 125.744L345.402 125.047L344.331 124.469L343.113 124.014L341.748 123.683L340.237 123.477L338.581 123.396L336.786 123.441L334.855 123.613L332.792 123.912L330.597 124.334L328.28 124.881L325.841 125.554L323.286 126.349L320.617 127.266L317.842 128.307L314.964 129.466L311.991 130.74L308.928 132.127L305.782 133.627L302.556 135.235L299.259 136.949L295.898 138.768L292.477 140.685L289.003 142.698L285.485 144.802L281.929 146.993L278.343 149.267L274.732 151.619L271.105 154.045L267.47 156.54L263.834 159.1L260.203 161.719L256.583 164.391L252.986 167.111L249.415 169.873L246.435 172.233M328.704 104.763L328.366 104.456L327.886 104.279L327.266 104.232L326.502 104.316L325.598 104.529L324.554 104.876L323.371 105.353L322.053 105.961L320.599 106.7L319.015 107.565L317.304 108.556L315.467 109.673L313.509 110.913L311.432 112.274L309.24 113.755L306.936 115.354L304.528 117.065L302.016 118.886L299.41 120.813L296.711 122.841L293.925 124.97L291.06 127.193L288.117 129.509L285.104 131.911L282.027 134.393L278.893 136.953L275.709 139.583L272.48 142.28L269.211 145.038L265.91 147.85L262.585 150.713L259.24 153.621L255.885 156.566L252.523 159.544L249.163 162.547L245.812 165.57L242.519 168.569M308.471 84.0285L308.606 84.2068L308.608 84.5227L308.478 84.9791L308.213 85.5731L307.816 86.3063L307.284 87.1772L306.619 88.1859L305.822 89.3286L304.893 90.604L303.838 92.0109L302.655 93.5429L301.348 95.2013L299.917 96.9811L298.366 98.8809L296.697 100.898L294.913 103.027L293.017 105.264L291.013 107.604L288.906 110.045L286.7 112.577L284.397 115.201L282.003 117.909L279.523 120.697L276.959 123.559L274.32 126.489L271.61 129.482L268.833 132.53L265.996 135.629L263.104 138.771L260.163 141.953L257.178 145.165L254.156 148.402L251.102 151.658L248.024 154.926L244.927 158.2L241.819 161.47L238.705 164.734L238.677 164.761M286.958 64.9528L287.597 65.5759L288.112 66.3469L288.503 67.2659L288.771 68.3327L288.91 69.5436L288.923 70.8987L288.809 72.3953L288.566 74.031L288.197 75.8032L287.702 77.7068L287.08 79.7394L286.334 81.8958L285.464 84.1762L284.472 86.5715L283.357 89.082L282.123 91.701L280.772 94.4224L279.308 97.2413L277.733 100.154L276.05 103.152L274.261 106.23L272.37 109.385L270.38 112.608L268.295 115.895L266.118 119.237L263.857 122.628L261.513 126.061L259.095 129.531L256.601 133.029L254.043 136.548L251.42 140.081L248.74 143.623L246.01 147.164L243.234 150.699L240.416 154.219L237.565 157.718L234.952 160.867M264.761 48.0645L265.919 49.0833L266.964 50.2601L267.897 51.5924L268.712 53.0777L269.41 54.7133L269.988 56.4994L270.442 58.4295L270.773 60.5051L270.979 62.7184L271.062 65.0645L271.021 67.5407L270.855 70.1409L270.564 72.8636L270.147 75.7001L269.605 78.6491L268.94 81.703L268.152 84.8543L267.244 88.0991L266.216 91.4298L265.073 94.8401L263.813 98.3226L262.439 101.873L260.954 105.482L259.362 109.144L257.665 112.851L255.865 116.596L253.969 120.37L251.98 124.166L249.901 127.977L247.734 131.797L245.486 135.613L243.16 139.423L240.761 143.217L238.295 146.988L235.765 150.726L233.179 154.427L231.379 156.92M240.699 32.6497L242.48 33.8392L244.165 35.1956L245.747 36.7149L247.225 38.3974L248.594 40.239L249.853 42.2362L250.997 44.3863L252.023 46.6869L252.932 49.1328L253.718 51.719L254.383 54.4418L254.924 57.2934L255.341 60.2715L255.631 63.3671L255.792 66.5778L255.828 69.8971L255.732 73.3176L255.508 76.8354L255.158 80.4392L254.68 84.1226L254.076 87.8819L253.347 91.7056L252.492 95.5888L251.515 99.5237L250.414 103.502L249.197 107.515L247.862 111.557L246.413 115.617L244.855 119.689L243.188 123.763L241.415 127.833L239.541 131.889L237.568 135.923L235.501 139.929L233.346 143.896L231.105 147.819L228.785 151.688L227.985 152.958M216.087 19.9695L218.46 21.2424L220.748 22.6936L222.949 24.3153L225.058 26.109L227.073 28.0682L228.986 30.1906L230.794 32.4746L232.496 34.9142L234.083 37.508L235.557 40.2485L236.912 43.1305L238.147 46.1503L239.258 49.3016L240.246 52.5741L241.103 55.9668L241.831 59.4733L242.426 63.0846L242.888 66.7971L243.216 70.5993L243.408 74.4849L243.466 78.4489L243.389 82.48L243.176 86.5717L242.828 90.7165L242.343 94.9055L241.723 99.1324L240.971 103.386L240.088 107.66L239.074 111.945L237.934 116.23L236.668 120.511L235.278 124.776L233.768 129.017L232.138 133.227L230.394 137.396L228.541 141.517L226.58 145.583L224.809 149.018M188.675 9.5427L191.65 10.6247L194.564 11.8925L197.409 13.3449L200.184 14.9794L202.879 16.7919L205.493 18.7765L208.018 20.9329L210.45 23.2562L212.786 25.7414L215.017 28.387L217.14 31.1868L219.151 34.1359L221.047 37.2277L222.824 40.456L224.476 43.8146L226.003 47.2983L227.402 50.8995L228.665 54.612L229.793 58.4294L230.782 62.3441L231.631 66.3473L232.34 70.4314L232.903 74.5876L233.324 78.8107L233.6 83.0882L233.729 87.4137L233.71 91.781L233.543 96.1773L233.23 100.599L232.771 105.032L232.17 109.47L231.425 113.904L230.535 118.326L229.506 122.725L228.338 127.093L227.031 131.421L225.592 135.704L224.021 139.93L222.325 144.091L221.87 145.112M157.737 2.75145L161.237 3.35188L164.71 4.14445L168.144 5.12912L171.537 6.3022L174.88 7.66607L178.165 9.21703L181.389 10.9513L184.544 12.8676L187.624 14.9596L190.622 17.2247L193.535 19.6568L196.355 22.2544L199.076 25.0112L201.693 27.9236L204.2 30.9889L206.592 34.1932L208.866 37.5365L211.018 41.0102L213.043 44.6076L214.934 48.3213L216.688 52.1463L218.305 56.0737L219.776 60.0983L221.102 64.2077L222.279 68.398L223.308 72.6579L224.184 76.9796L224.904 81.3557L225.469 85.7786L225.874 90.2381L226.119 94.7254L226.208 99.2304L226.136 103.747L225.906 108.265L225.519 112.775L224.975 117.267L224.272 121.734L223.414 126.167L222.402 130.557L221.237 134.894L219.924 139.173L219.186 141.309M123.276 2.03993L127.115 1.86429L130.964 1.88578L134.819 2.10315L138.671 2.51649L142.513 3.12324L146.338 3.92468L150.137 4.91946L153.904 6.10253L157.63 7.47782L161.31 9.04147L164.934 10.7896L168.497 12.7198L171.992 14.8245L175.411 17.1035L178.751 19.5506L182.001 22.1635L185.156 24.9342L188.208 27.8629L191.152 30.9409L193.984 34.1616L196.699 37.519L199.289 41.0065L201.75 44.6153L204.076 48.3416L206.264 52.178L208.305 56.1181L210.201 60.1528L211.944 64.2723L213.536 68.4702L214.968 72.7388L216.241 77.0681L217.351 81.4519L218.295 85.8772L219.07 90.3406L219.675 94.8317L220.111 99.3405L220.377 103.861L220.473 108.378L220.397 112.889L220.151 117.382L219.733 121.849L219.144 126.281L218.386 130.67L217.462 135.007L216.779 137.684M79.1221 13.5422L82.827 11.9912L86.6103 10.6222L90.4618 9.43527L94.3752 8.43671L98.3431 7.62389L102.359 7.00078L106.413 6.56974L110.497 6.33331L114.606 6.29161L118.732 6.44333L122.865 6.78962L126.998 7.3294L131.123 8.06002L135.233 8.98151L139.317 10.0926L143.369 11.392L147.38 12.8773L151.344 14.5484L155.253 16.3964L159.098 18.4214L162.872 20.6183L166.569 22.9807L170.181 25.5075L173.699 28.1936L177.117 31.0352L180.428 34.0259L183.626 37.1581L186.707 40.4257L189.661 43.8222L192.486 47.3425L195.175 50.9792L197.719 54.7245L200.117 58.5735L202.362 62.5173L204.451 66.5458L206.382 70.6552L208.149 74.8341L209.749 79.0762L211.179 83.3701L212.434 87.7121L213.513 92.0907L214.415 96.4984L215.136 100.926L215.679 105.364L216.04 109.806L216.22 114.243L216.217 118.665L216.033 123.061L215.663 127.427L215.114 131.751L214.686 134.257M38.5311 42.4029L41.4119 39.5221L44.4343 36.7805L47.5905 34.1829L50.8745 31.7357L54.2811 29.4414L57.8027 27.3052L61.433 25.3333L65.167 23.5283L68.9958 21.8964L72.9143 20.4403L76.9125 19.1598L80.9851 18.06L85.1198 17.1411L89.3139 16.4054L93.556 15.8569L97.8398 15.494L102.155 15.3222L106.496 15.3399L110.853 15.5459L115.217 15.9403L119.579 16.5204L123.932 17.2865L128.266 18.2383L132.576 19.3747L136.848 20.6943L141.076 22.1922L145.254 23.867L149.372 25.715L153.423 27.7312L157.396 29.9117L161.288 32.254L165.087 34.7529L168.785 37.4049L172.379 40.2047L175.858 43.1449L179.219 46.2203L182.453 49.4246L185.555 52.7516L188.518 56.1948L191.336 59.748L194.001 63.4049L196.513 67.1578L198.863 70.9992L201.05 74.9203L203.068 78.9134L204.915 82.9722L206.586 87.0879L208.077 91.2529L209.384 95.4596L210.505 99.698L211.441 103.962L212.19 108.242L212.75 112.528L213.119 116.816L213.298 121.093L213.287 125.354L213.082 129.589L212.939 131.114M13.2101 81.1548L14.9355 77.5385L16.8404 74.0029L18.9222 70.5559L21.1773 67.2061L23.6004 63.9564L26.1867 60.8165L28.9334 57.7916L31.8369 54.8907L34.8908 52.1148L38.0863 49.4705L41.4209 46.9652L44.8843 44.6014L48.4729 42.383L52.1791 40.3176L55.9965 38.4088L59.9175 36.6619L63.9359 35.0781L68.0428 33.6611L72.228 32.4135L76.4853 31.3366L80.807 30.4328L85.1843 29.7059L89.6085 29.1574L94.0693 28.7895L98.5617 28.6025L103.074 28.5949L107.601 28.7681L112.129 29.1194L116.65 29.6516L121.158 30.3595L125.64 31.2468L130.092 32.3111L134.501 33.5474L138.86 34.9568L143.163 36.5343L147.398 38.2736L151.558 40.176L155.636 42.2364L159.621 44.4497L163.507 46.8135L167.284 49.3239L170.949 51.9733L174.494 54.7567L177.91 57.6677L181.192 60.7014L184.334 63.854L187.328 67.1152L190.168 70.4839L192.849 73.9485L195.367 77.5056L197.718 81.146L199.896 84.8636L201.899 88.6493L203.723 92.4958L205.362 96.3991L206.813 100.348L208.074 104.337L209.145 108.358L210.022 112.401L210.707 116.461L211.195 120.528L211.49 124.595L211.579 128.439M2.3348 126.789L2.68498 123.001L3.23483 119.23L3.97935 115.483L4.91982 111.766L6.05616 108.087L7.38593 104.451L8.90912 100.87L10.6206 97.3486L12.5167 93.8903L14.5961 90.5064L16.8498 87.201L19.2793 83.9803L21.8781 80.853L24.6413 77.8243L27.565 74.9006L30.6442 72.0869L33.8713 69.3907L37.24 66.8133L40.7438 64.3636L44.3755 62.0441L48.1296 59.8599L51.9989 57.8184L55.9769 55.9211L60.0533 54.1729L64.2221 52.5777L68.4744 51.1366L72.8012 49.8537L77.195 48.7312L81.6444 47.7706L86.1443 46.9768L90.686 46.351L95.2568 45.8935L99.8528 45.6052L104.46 45.4852L109.073 45.5345L113.68 45.7531L118.275 46.1412L122.844 46.6987L127.382 47.4242L131.879 48.3154L136.325 49.3721L140.713 50.5894L145.035 51.9659L149.281 53.4992L153.443 55.1841L157.512 57.0208L161.48 59.0041L165.341 61.1315L169.085 63.3966L172.708 65.7932L176.203 68.3201L179.561 70.9694L182.775 73.7365L185.843 76.6172L188.753 79.6054L191.503 82.6947L194.087 85.8801L196.502 89.1527L198.744 92.5061L200.808 95.9355L202.689 99.4343L204.385 102.994L205.89 106.61L207.203 110.273L208.324 113.978L209.248 117.716L209.977 121.482L210.51 125.264L210.595 126.241M3.88123 163.068L3.44885 159.609L3.21503 156.124L3.18224 152.615L3.34781 149.092L3.7131 145.559L4.27686 142.025L5.03786 138.496L5.99592 134.979L7.14878 131.483L8.49622 128.01L10.0371 124.57L11.7662 121.17L13.6813 117.816L15.7783 114.513L18.0536 111.27L20.502 108.091L23.1198 104.985L25.9033 101.956L28.8472 99.0126L31.9454 96.1596L35.1927 93.4001L38.5803 90.7432L42.1019 88.1924L45.7538 85.7515L49.5257 83.4282L53.4126 81.2275L57.4056 79.1532L61.4973 77.2078L65.68 75.399L69.9449 73.7254L74.2831 72.1909L78.6857 70.8017L83.1465 69.5592L87.6528 68.4657L92.1983 67.5253L96.7754 66.7378L101.373 66.1071L105.981 65.6318L110.591 65.312L115.195 65.1502L119.781 65.1452L124.344 65.2993L128.871 65.6115L133.354 66.083L137.787 66.7087L142.159 67.4887L146.462 68.419L150.688 69.5022L154.828 70.7322L158.871 72.1087L162.814 73.6293L166.646 75.2904L170.361 77.0866L173.954 79.018L177.416 81.0745L180.74 83.2563L183.921 85.5569L186.951 87.9749L189.824 90.5043L192.535 93.1373L195.082 95.8714L197.459 98.7003L199.662 101.619L201.687 104.617L203.528 107.695L205.186 110.844L206.652 114.057L207.926 117.331L209.009 120.657L209.898 124.028M11.8633 195.968L10.9481 193.055L10.2226 190.082L9.68919 187.049L9.34919 183.966L9.20507 180.836L9.25689 177.664L9.50719 174.459L9.95203 171.225L10.5917 167.969L11.4247 164.699L12.4498 161.419L13.6683 158.135L15.0752 154.855L16.6705 151.586L18.4515 148.331L20.4145 145.101L22.5533 141.898L24.8652 138.732L27.3478 135.607L29.9922 132.531L32.7995 129.508L35.7612 126.547L38.872 123.651L42.1256 120.827L45.5158 118.081L49.0361 115.418L52.6778 112.843L56.4358 110.362L60.3025 107.979L64.269 105.701L68.3305 103.534L72.4777 101.477L76.6984 99.5367L80.9897 97.7177L85.338 96.0214L89.7394 94.4539L94.1812 93.0181L98.6572 91.7148L103.158 90.5506L107.674 89.5242L112.195 88.6382L116.714 87.8937L121.222 87.292L125.708 86.8357L130.163 86.5259L134.581 86.3629L138.951 86.3465L143.265 86.4767L147.516 86.7509L151.694 87.1719L155.79 87.7344L159.799 88.441L163.708 89.2891L167.514 90.2763L171.207 91.4026L174.781 92.6616L178.231 94.0533L181.549 95.5739L184.728 97.2185L187.763 98.9868L190.649 100.874L193.378 102.875L195.945 104.99L198.348 107.208L200.582 109.53L202.643 111.948L204.529 114.459L206.236 117.055L207.758 119.735L209.092 122.49L210.024 124.787L210.033 124.811L210.082 124.931L210.105 124.989L210.135 125.06L210.24 125.319M210.524 126.08L210.235 125.313L210.073 124.863L210.069 124.854L210.053 124.81L209.95 124.523L209.859 124.273L209.51 123.244M210.07 124.858L210.048 124.786L209.914 124.341L209.652 123.402M22.7588 223.071L21.8512 220.71L21.1269 218.266L20.5847 215.742L20.2282 213.143L20.0613 210.474L20.0803 207.739L20.2926 204.943L20.6921 202.092L21.2812 199.192L22.0547 196.247L23.0153 193.264L24.1606 190.25L25.4878 187.206L26.997 184.145L28.6859 181.066L30.5516 177.979L32.5879 174.891L34.7924 171.804L37.1599 168.726L39.6868 165.666L42.3678 162.626L45.2005 159.614L48.1773 156.637L51.2931 153.701L54.5418 150.808L57.9168 147.967L61.4106 145.183L65.0155 142.463L68.7268 139.811L72.5353 137.234L76.4349 134.735L80.4178 132.322L84.4767 129.997L88.6 127.765L92.7826 125.633L97.0147 123.6L101.288 121.675L105.592 119.861L109.923 118.162L114.269 116.58L118.621 115.12L122.972 113.782L127.31 112.569L131.63 111.484L135.922 110.53L140.175 109.709L144.385 109.022L148.541 108.471L152.634 108.056L156.658 107.776L160.605 107.631L164.465 107.624L168.234 107.753L171.903 108.018L175.461 108.421L178.907 108.957L182.231 109.627L185.429 110.429L188.496 111.359L191.423 112.416L194.205 113.598L196.84 114.902L199.318 116.329L201.637 117.871L203.794 119.529L205.785 121.294L207.608 123.165L209.257 125.141L210.453 126.82L210.473 126.85L210.485 126.864L210.733 127.213L211.96 129.264L212.007 129.344L212.027 129.379M215.463 135.59L214.754 134.381L214.035 133.12L213.339 131.864L212.939 131.117L212.668 130.614L212.02 129.371L211.945 129.218L211.577 128.491L211.398 128.135M211.946 129.216L211.577 128.432L211.437 128.133L210.919 126.985L210.67 126.41L210.592 126.234L210.424 125.846L210.364 125.702L210.23 125.379L210.18 125.258L210.15 125.188L210.113 125.1L210.088 125.037L209.954 124.716M38.4285 251.861L37.4565 250.224L36.6577 248.48L36.0319 246.631L35.5807 244.683L35.3052 242.637L35.2039 240.499L35.2823 238.271L35.5402 235.958L35.9763 233.563L36.5906 231.09L37.3819 228.547L38.3489 225.934L39.4903 223.261L40.8024 220.531L42.285 217.748L43.9346 214.921L45.7511 212.05L47.7306 209.143L49.8668 206.208L52.1585 203.249L54.5969 200.272L57.1806 197.281L59.9033 194.285L62.7626 191.29L65.752 188.3L68.8653 185.321L72.0949 182.362L75.437 179.424L78.8816 176.518L82.4234 173.646L86.0549 170.816L89.7713 168.033L93.5633 165.305L97.4237 162.633L101.345 160.026L105.316 157.488L109.333 155.023L113.386 152.637L117.468 150.335L121.567 148.121L125.679 146.004L129.794 143.982L133.904 142.062L138.001 140.245L142.076 138.539L146.121 136.941L150.129 135.461L154.088 134.098L157.996 132.857L161.84 131.738L165.617 130.745L169.316 129.878L172.934 129.137L176.459 128.526L179.886 128.045L183.21 127.696L186.422 127.477L189.516 127.394L192.489 127.439L195.334 127.616L198.046 127.922L200.62 128.357L203.051 128.922L205.333 129.612L207.463 130.43L209.438 131.37L211.252 132.434L212.907 133.614L214.398 134.91L215.722 136.32L216.878 137.84M225.441 149.832L224.813 149.024L224.501 148.626L223.477 147.281L222.471 145.936L221.873 145.116L221.486 144.588L220.522 143.239L219.579 141.889L219.188 141.316L218.656 140.539L217.757 139.19L216.881 137.844L216.784 137.691L216.028 136.5L215.197 135.159M55.2785 276.506L54.687 275.422L54.256 274.217L53.9906 272.892L53.8869 271.451L53.9489 269.895L54.1763 268.229L54.5682 266.455L55.1243 264.574L55.8487 262.59L56.736 260.507L57.784 258.329L58.9936 256.06L60.3613 253.707L61.8844 251.271L63.5605 248.758L65.3871 246.171L67.3641 243.516L69.4839 240.8L71.7427 238.025L74.1367 235.199L76.6624 232.327L79.313 229.416L82.0837 226.468L84.9709 223.492L87.9679 220.493L91.0698 217.477L94.2704 214.451L97.5619 211.42L100.937 208.389L104.39 205.367L107.916 202.358L111.503 199.37L115.148 196.407L118.845 193.474L122.582 190.581L126.354 187.732L130.153 184.932L133.97 182.186L137.799 179.5L141.631 176.884L145.459 174.335L149.275 171.867L153.072 169.478L156.841 167.175L160.575 164.962L164.266 162.844L167.909 160.827L171.494 158.91L175.015 157.104L178.464 155.406L181.835 153.822L185.122 152.356L188.319 151.008L191.419 149.78L194.415 148.675L197.303 147.698L200.077 146.849L202.729 146.128L205.257 145.539L207.657 145.078L209.902 144.752L209.923 144.748L212.055 144.551L214.043 144.484L215.886 144.55L217.58 144.747L219.123 145.074L220.511 145.532L221.746 146.117L222.823 146.827L223.742 147.663L224.499 148.62M75.4154 301.044L75.1184 300.64L74.973 300.101L74.9806 299.426L75.1398 298.617L75.4508 297.676L75.9109 296.604L76.5227 295.404L77.2849 294.078L78.1975 292.624L79.2594 291.046L80.4665 289.349L81.8202 287.535L83.3144 285.609L84.9475 283.571L86.7172 281.427L88.6195 279.181L90.6521 276.837L92.8124 274.399L95.0952 271.871L97.4969 269.26L100.009 266.568L102.631 263.804L105.354 260.972L108.177 258.077L111.092 255.124L114.095 252.12L117.177 249.072L120.336 245.984L123.561 242.861L126.848 239.714L130.191 236.545L133.581 233.365L137.014 230.177L140.482 226.985L143.977 223.801L147.492 220.629L151.023 217.476L154.558 214.347L158.091 211.249L161.618 208.19L165.128 205.173L168.617 202.207L172.075 199.298L175.497 196.45L178.876 193.668L182.204 190.959L185.476 188.328L188.686 185.781L191.824 183.323L194.888 180.959L197.868 178.692L200.761 176.53L203.561 174.471L206.262 172.523L208.86 170.689L211.349 168.971L213.724 167.374L215.981 165.903L218.114 164.557L220.121 163.341L222.001 162.252L223.745 161.297L225.356 160.475L226.827 159.788L228.157 159.236L229.342 158.822L230.38 158.545L231.271 158.407L232.016 158.406L232.611 158.539L233.057 158.808M255.776 180.221L255.718 180.173L254.372 179.087L254.355 179.073L252.972 177.935L251.578 176.766L250.397 175.755L250.19 175.578L248.811 174.373L247.438 173.152L246.436 172.241L246.074 171.915L244.721 170.662L243.376 169.395L242.044 168.114L240.72 166.821L239.409 165.512L238.679 164.769L238.111 164.194L236.826 162.863L235.555 161.522L234.299 160.169L233.057 158.809L231.831 157.439L231.797 157.4L231.38 156.927L230.622 156.062L229.43 154.678L228.254 153.285L227.097 151.889L225.96 150.485L224.841 149.079M97.0799 323.317L97.2973 323.441L97.6525 323.417L98.1493 323.244L98.7838 322.925L99.5562 322.459L100.464 321.847L101.505 321.088L102.681 320.186L103.99 319.139L105.429 317.949L106.994 316.619L108.685 315.15L110.496 313.548L112.425 311.814L114.468 309.951L116.621 307.963L118.881 305.852L121.245 303.619L123.706 301.275L126.26 298.821L128.903 296.261L131.629 293.602L134.431 290.85L137.307 288.007L140.248 285.081L143.25 282.076L146.308 278.999L149.414 275.855L152.562 272.653L155.746 269.398L158.96 266.097L162.196 262.754L165.449 259.379L168.713 255.979L171.978 252.557L175.242 249.124L178.495 245.686L181.731 242.248L184.944 238.82L188.127 235.407L191.276 232.015L194.379 228.654L197.436 225.33L200.435 222.047L203.375 218.814L206.249 215.637L209.05 212.52L211.772 209.474L214.412 206.501L216.961 203.61L219.417 200.805L221.775 198.091L224.03 195.472L226.179 192.957L228.215 190.546L230.138 188.247L231.941 186.064L233.623 184.001L235.177 182.062L236.604 180.248L237.903 178.566L239.068 177.013L240.102 175.598L240.998 174.32L241.755 173.183L242.375 172.19L242.854 171.339L243.193 170.634L243.392 170.073L243.453 169.658L243.375 169.39M120.303 343.55L121.067 344.153L121.96 344.596L122.98 344.88L124.124 345.005L125.39 344.97L126.774 344.774L128.277 344.419L129.895 343.903L131.626 343.227L133.466 342.39L135.414 341.395L137.463 340.244L139.611 338.938L141.853 337.482L144.185 335.875L146.605 334.121L149.104 332.223L151.681 330.185L154.332 328.009L157.048 325.7L159.825 323.264L162.658 320.704L165.54 318.027L168.468 315.236L171.433 312.339L174.433 309.337L177.457 306.239L180.505 303.049L183.565 299.777L186.636 296.428L189.706 293.009L192.774 289.527L195.831 285.986L198.871 282.398L201.889 278.766L204.878 275.099L207.832 271.404L210.746 267.692L213.613 263.965L216.426 260.234L219.182 256.508L221.873 252.79L224.496 249.09L227.043 245.416L229.512 241.774L231.896 238.171L234.191 234.617L236.392 231.117L238.496 227.677L240.496 224.307L242.391 221.012L244.176 217.799L245.848 214.673L247.405 211.639L248.844 208.704L250.161 205.875L251.354 203.158L252.42 200.555L253.358 198.075L253.412 197.917L253.413 197.911L253.415 197.909L254.167 195.719L254.844 193.492L255.393 191.398L255.809 189.44L256.092 187.623L256.242 185.95L256.257 184.426L256.141 183.051L255.891 181.827L255.513 180.756L255.004 179.84L254.366 179.079M145.65 362.094L147.095 362.943L148.654 363.621L150.321 364.128L152.094 364.466L153.969 364.631L155.943 364.624L158.014 364.442L160.178 364.085L162.43 363.554L164.768 362.85L167.184 361.973L169.676 360.925L172.239 359.709L174.866 358.326L177.553 356.779L180.298 355.069L183.092 353.199L185.931 351.172L188.811 348.993L191.722 346.666L194.662 344.196L197.624 341.588L200.601 338.846L203.587 335.976L206.579 332.981L209.568 329.869L212.55 326.647L215.516 323.319L218.465 319.894L221.388 316.378L224.277 312.778L227.129 309.102L229.936 305.354L232.695 301.544L235.4 297.682L238.043 293.772L240.621 289.823L243.129 285.844L245.562 281.843L247.912 277.827L250.176 273.806L252.352 269.785L254.431 265.777L256.414 261.784L258.294 257.819L260.067 253.886L261.733 249.996L263.284 246.157L264.719 242.373L266.036 238.657L267.232 235.012L268.305 231.443L269.254 227.964L270.076 224.576L270.771 221.287L271.336 218.105L271.771 215.036L272.074 212.086L272.246 209.257L272.289 206.557L272.202 203.99L271.983 201.562L271.638 199.275L271.162 197.135L270.557 195.148L270.494 194.986L270.48 194.954L269.829 193.315L268.975 191.639L268 190.123L266.907 188.767L265.696 187.576L264.37 186.551M271.099 190.906L269.758 190.083L269.475 189.903L268.415 189.235L267.068 188.364L265.918 187.603L265.718 187.471L264.37 186.555L263.02 185.617L262.161 185.009L261.67 184.659L260.321 183.679L258.972 182.679L258.368 182.222L258.304 182.173L257.627 181.661L256.285 180.619L255.721 180.174M172.193 377.848L174.285 378.843L176.47 379.661L178.744 380.299L181.104 380.755L183.546 381.028L186.064 381.117L188.656 381.021L191.313 380.738L194.034 380.269L196.812 379.614L199.643 378.776L202.519 377.757L205.436 376.557L208.39 375.178L211.372 373.622L214.377 371.891L217.401 369.987L220.437 367.917L223.477 365.683L226.52 363.29L229.555 360.743L232.578 358.046L235.582 355.202L238.562 352.219L241.511 349.1L244.425 345.855L247.297 342.488L250.121 339.007L252.89 335.418L255.601 331.731L258.247 327.948L260.821 324.08L263.32 320.132L265.739 316.115L268.074 312.036L270.317 307.904L272.468 303.726L274.52 299.512L276.468 295.269L278.307 291.005L280.037 286.73L281.652 282.452L283.151 278.18L284.53 273.924L285.787 269.689L286.919 265.485L287.924 261.323L288.798 257.208L289.54 253.15L290.151 249.155L290.631 245.233L290.977 241.39L291.188 237.635L291.265 233.973L291.208 230.415L291.016 226.964L290.691 223.63L290.231 220.417L289.643 217.332L288.924 214.378L288.078 211.563L287.106 208.892L286.01 206.37L284.793 204.002L283.455 201.794L282.001 199.746L280.434 197.863L278.759 196.148L277.737 195.26L277.726 195.251L277.715 195.24L276.978 194.602L275.094 193.229L273.111 192.035M278.091 194.642L276.856 194.027L276.708 193.95L275.801 193.482L275.613 193.386L274.365 192.721L273.109 192.032L271.85 191.319L270.585 190.582L270.317 190.423M210.072 124.862L209.894 124.027" stroke="url(#paint0_angular_126_3796)" stroke-width="2" stroke-miterlimit="10" stroke-linecap="round" stroke-linejoin="round"/>
  </g>
  <defs>
    <radialGradient id="paint0_angular_126_3796" cx="0" cy="0" r="1" gradientUnits="userSpaceOnUse" gradientTransform="translate(203.276 202.678) rotate(-180) scale(201.32 201.274)">
      <stop offset="0.0993526" stop-color="#FFC876"/>
      <stop offset="0.427081" stop-color="#79FFF7"/>
      <stop offset="0.718753" stop-color="#9F53FF"/>
      <stop offset="1" stop-color="#FF98E2"/>
    </radialGradient>
  </defs>
</svg>
